<?xml version="1.0" encoding="UTF-8"?>
<!DOCTYPE svg PUBLIC "-//W3C//DTD SVG 1.1//EN" "http://www.w3.org/Graphics/SVG/1.1/DTD/svg11.dtd">
<!-- Creator: CorelDRAW -->
<svg xmlns="http://www.w3.org/2000/svg" xml:space="preserve" width="0.312496in" height="0.312496in" version="1.1" style="shape-rendering:geometricPrecision; text-rendering:geometricPrecision; image-rendering:optimizeQuality; fill-rule:evenodd; clip-rule:evenodd"
viewBox="0 0 42.58 42.58"
 xmlns:xlink="http://www.w3.org/1999/xlink"
 xmlns:xodm="http://www.corel.com/coreldraw/odm/2003">
 <defs>
  <style type="text/css">
   <![CDATA[
    .fil1 {fill:#FEFEFE}
    .fil0 {fill:#0371E0;fill-rule:nonzero}
   ]]>
  </style>
 </defs>
 <g id="Layer_x0020_1">
  <metadata id="CorelCorpID_0Corel-Layer"/>
  <circle class="fil0" cx="21.29" cy="21.29" r="21.29"/>
  <g id="_2732351708176">
   <path class="fil1" d="M18.38 11.35c-1.63,0.03 -2.98,0.02 -4.29,0.74 -0.99,0.55 -1.87,1.47 -2.36,2.63 -0.7,1.66 -0.56,7.47 -0.46,9.56 0.08,1.7 0,2.86 0.77,4.2 0.55,0.98 1.5,1.83 2.72,2.33 1.61,0.65 7.47,0.49 9.52,0.42 1.72,-0.05 2.88,0 4.25,-0.76 0.95,-0.53 1.88,-1.47 2.34,-2.65 0.69,-1.79 0.54,-7.28 0.45,-9.45 -0.07,-1.58 -0.03,-2.99 -0.74,-4.23 -0.57,-1.01 -1.49,-1.85 -2.7,-2.35 -1.67,-0.7 -7.36,-0.48 -9.49,-0.44zm1.22 1.4c-2.6,0.02 -5.15,-0.22 -6.4,2.22 -0.53,1.04 -0.47,2.52 -0.51,3.78 -0.05,1.46 -0.1,7.07 0.25,8.23 0.32,1.08 1.11,1.9 1.98,2.35 1.05,0.54 2.57,0.45 3.82,0.49 1.44,0.05 7.21,0.12 8.32,-0.25 1.12,-0.37 1.87,-1.07 2.34,-1.98 0.69,-1.34 0.55,-6.35 0.51,-8.05 -0.02,-0.96 -0.03,-3.15 -0.28,-3.96 -0.33,-1.05 -1.13,-1.9 -2,-2.32 -1.08,-0.53 -2.57,-0.43 -3.85,-0.48 -1.4,-0.05 -2.79,-0.03 -4.19,-0.02z"/>
   <path class="fil1" d="M26.51 14.75c-1.42,0.43 -0.81,2.55 0.64,2.17 1.41,-0.37 0.82,-2.61 -0.64,-2.17zm-5.71 1.4c-2.7,0.23 -4.93,2.67 -4.64,5.67 0.26,2.69 2.66,4.88 5.66,4.61 2.68,-0.24 4.88,-2.66 4.62,-5.65 -0.24,-2.68 -2.66,-4.89 -5.63,-4.63zm-0.08 1.45c-1.85,0.28 -3.47,2.07 -3.12,4.28 0.3,1.84 2.05,3.45 4.27,3.1 1.84,-0.29 3.45,-2.05 3.1,-4.27 -0.29,-1.86 -2.04,-3.44 -4.26,-3.11z"/>
  </g>
 </g>
</svg>
