<?xml version="1.0" encoding="UTF-8"?>
<!DOCTYPE svg PUBLIC "-//W3C//DTD SVG 1.1//EN" "http://www.w3.org/Graphics/SVG/1.1/DTD/svg11.dtd">
<!-- Creator: CorelDRAW -->
<svg xmlns="http://www.w3.org/2000/svg" xml:space="preserve" width="0.312496in" height="0.312496in" version="1.1" style="shape-rendering:geometricPrecision; text-rendering:geometricPrecision; image-rendering:optimizeQuality; fill-rule:evenodd; clip-rule:evenodd"
viewBox="0 0 61.04 61.04"
 xmlns:xlink="http://www.w3.org/1999/xlink"
 xmlns:xodm="http://www.corel.com/coreldraw/odm/2003">
 <defs>
  <style type="text/css">
   <![CDATA[
    .fil0 {fill:#0371E0;fill-rule:nonzero}
    .fil1 {fill:white;fill-rule:nonzero}
   ]]>
  </style>
 </defs>
 <g id="Layer_x0020_1">
  <metadata id="CorelCorpID_0Corel-Layer"/>
  <circle class="fil0" cx="30.52" cy="30.52" r="30.52"/>
  <path class="fil1" d="M20.76 22.99c-0.7,0 -1.29,-0.22 -1.77,-0.66 -0.46,-0.46 -0.68,-1.02 -0.68,-1.68 0,-0.66 0.23,-1.22 0.68,-1.65 0.47,-0.46 1.06,-0.68 1.77,-0.68 0.7,0 1.28,0.23 1.74,0.68 0.47,0.44 0.71,0.99 0.71,1.65 0,0.67 -0.24,1.23 -0.71,1.68 -0.46,0.44 -1.04,0.66 -1.74,0.66zm1.96 1.88l0 15.78 -3.99 0 0 -15.78 3.99 0z"/>
  <path class="fil1" d="M35.42 24.64c1.88,0 3.4,0.6 4.56,1.8 1.16,1.18 1.74,2.83 1.74,4.96l0 9.26 -3.99 0 0 -8.72c0,-1.25 -0.31,-2.21 -0.94,-2.88 -0.63,-0.68 -1.48,-1.03 -2.56,-1.03 -1.1,0 -1.97,0.34 -2.62,1.03 -0.63,0.66 -0.94,1.62 -0.94,2.88l0 8.72 -3.99 0 0 -15.78 3.99 0 0 1.96c0.53,-0.68 1.21,-1.22 2.02,-1.6 0.84,-0.4 1.75,-0.6 2.73,-0.6z"/>
 </g>
</svg>
