<?xml version="1.0" encoding="UTF-8"?>
<!DOCTYPE svg PUBLIC "-//W3C//DTD SVG 1.1//EN" "http://www.w3.org/Graphics/SVG/1.1/DTD/svg11.dtd">
<!-- Creator: CorelDRAW -->
<svg xmlns="http://www.w3.org/2000/svg" xml:space="preserve" width="0.312496in" height="0.312496in" version="1.1" style="shape-rendering:geometricPrecision; text-rendering:geometricPrecision; image-rendering:optimizeQuality; fill-rule:evenodd; clip-rule:evenodd"
viewBox="0 0 301.17 301.17"
 xmlns:xlink="http://www.w3.org/1999/xlink"
 xmlns:xodm="http://www.corel.com/coreldraw/odm/2003">
 <defs>
  <style type="text/css">
   <![CDATA[
    .fil0 {fill:#0371E0;fill-rule:nonzero}
    .fil1 {fill:white;fill-rule:nonzero}
   ]]>
  </style>
 </defs>
 <g id="Layer_x0020_1">
  <metadata id="CorelCorpID_0Corel-Layer"/>
  <circle class="fil0" cx="150.59" cy="150.59" r="150.59"/>
  <path class="fil1" d="M234.63 103.22c-6.11,2.49 -12.63,4.14 -19.42,4.95 6.99,-3.88 12.32,-9.97 14.82,-17.31 -6.51,3.61 -13.7,6.16 -21.37,7.58 -6.18,-6.12 -15,-9.91 -24.61,-9.91 -18.66,0 -33.67,14.07 -33.67,31.33 0,2.48 0.23,4.87 0.78,7.14 -28.01,-1.27 -52.8,-13.75 -69.45,-32.76 -2.91,4.69 -4.61,10.06 -4.61,15.83 0,10.85 6.01,20.46 14.96,26.03 -5.41,-0.09 -10.72,-1.56 -15.22,-3.86 0,0.1 0,0.22 0,0.35 0,15.22 11.68,27.86 27,30.77 -2.74,0.7 -5.73,1.03 -8.84,1.03 -2.16,0 -4.33,-0.11 -6.38,-0.54 4.37,12.4 16.76,21.53 31.49,21.82 -11.46,8.33 -26.02,13.36 -41.78,13.36 -2.77,0 -5.41,-0.11 -8.07,-0.43 14.93,8.95 32.62,14.05 51.69,14.05 62,0 95.9,-47.74 95.9,-89.13 0,-1.38 -0.05,-2.72 -0.12,-4.05 6.69,-4.41 12.31,-9.92 16.89,-16.26z"/>
 </g>
</svg>
