<?xml version="1.0" encoding="UTF-8"?>
<!DOCTYPE svg PUBLIC "-//W3C//DTD SVG 1.1//EN" "http://www.w3.org/Graphics/SVG/1.1/DTD/svg11.dtd">
<!-- Creator: CorelDRAW -->
<svg xmlns="http://www.w3.org/2000/svg" xml:space="preserve" width="5.68583in" height="4.48876in" version="1.1" style="shape-rendering:geometricPrecision; text-rendering:geometricPrecision; image-rendering:optimizeQuality; fill-rule:evenodd; clip-rule:evenodd"
viewBox="0 0 6125.99 4836.26"
 xmlns:xlink="http://www.w3.org/1999/xlink"
 xmlns:xodm="http://www.corel.com/coreldraw/odm/2003">
 <defs>
  <style type="text/css">
   <![CDATA[
    .fil4 {fill:#0371E0}
    .fil9 {fill:#0E2D3D;fill-rule:nonzero}
    .fil10 {fill:#163342;fill-rule:nonzero}
    .fil14 {fill:#183C59;fill-rule:nonzero}
    .fil11 {fill:#1D3B54;fill-rule:nonzero}
    .fil12 {fill:#285173;fill-rule:nonzero}
    .fil37 {fill:#292C47;fill-rule:nonzero}
    .fil36 {fill:#2D3133;fill-rule:nonzero}
    .fil41 {fill:#323657;fill-rule:nonzero}
    .fil27 {fill:#344052;fill-rule:nonzero}
    .fil5 {fill:#385369;fill-rule:nonzero}
    .fil29 {fill:#393D63;fill-rule:nonzero}
    .fil39 {fill:#3A3F47;fill-rule:nonzero}
    .fil32 {fill:#3C4145;fill-rule:nonzero}
    .fil38 {fill:#424773;fill-rule:nonzero}
    .fil7 {fill:#434343;fill-rule:nonzero}
    .fil3 {fill:#4598E6;fill-rule:nonzero}
    .fil33 {fill:#51565C;fill-rule:nonzero}
    .fil15 {fill:#616161;fill-rule:nonzero}
    .fil1 {fill:#96BFE6;fill-rule:nonzero}
    .fil8 {fill:#A77860;fill-rule:nonzero}
    .fil43 {fill:#AB9546;fill-rule:nonzero}
    .fil35 {fill:#D44040;fill-rule:nonzero}
    .fil30 {fill:#DECBC4;fill-rule:nonzero}
    .fil16 {fill:#E0CEC7;fill-rule:nonzero}
    .fil40 {fill:#E2D2CA;fill-rule:nonzero}
    .fil31 {fill:#E8734D;fill-rule:nonzero}
    .fil28 {fill:#EB4747;fill-rule:nonzero}
    .fil6 {fill:#EEA886;fill-rule:nonzero}
    .fil17 {fill:#EEA987;fill-rule:nonzero}
    .fil34 {fill:#F5E2D9;fill-rule:nonzero}
    .fil13 {fill:#FFBF55;fill-rule:nonzero}
    .fil42 {fill:#FFDF69;fill-rule:nonzero}
    .fil23 {fill:white;fill-rule:nonzero}
    .fil18 {fill:url(#id1)}
    .fil2 {fill:url(#id2)}
    .fil47 {fill:url(#id3)}
    .fil49 {fill:url(#id4)}
    .fil48 {fill:url(#id5)}
    .fil20 {fill:url(#id6)}
    .fil25 {fill:url(#id7)}
    .fil45 {fill:url(#id8)}
    .fil44 {fill:url(#id9)}
    .fil46 {fill:url(#id10)}
    .fil50 {fill:url(#id11)}
    .fil52 {fill:url(#id12)}
    .fil51 {fill:url(#id13)}
    .fil53 {fill:url(#id14)}
    .fil19 {fill:url(#id15)}
    .fil26 {fill:url(#id16)}
    .fil54 {fill:url(#id17)}
    .fil21 {fill:url(#id18)}
    .fil22 {fill:url(#id19)}
    .fil24 {fill:url(#id20)}
    .fil0 {fill:url(#id21)}
   ]]>
  </style>
   <clipPath id="id0">
    <path d="M3512.78 1628.03l-1038.36 0 0 -891.03 1038.36 0 0 891.03 0 0z"/>
   </clipPath>
  <linearGradient id="id1" gradientUnits="userSpaceOnUse" x1="1312" y1="3605.87" x2="939.9" y2="3605.87">
   <stop offset="0" style="stop-opacity:1; stop-color:#3076A1"/>
   <stop offset="1" style="stop-opacity:1; stop-color:#48C9B6"/>
  </linearGradient>
  <linearGradient id="id2" gradientUnits="userSpaceOnUse" x1="5071.69" y1="4052.16" x2="5071.69" y2="1807.14">
   <stop offset="0" style="stop-opacity:1; stop-color:#D3D9E1"/>
   <stop offset="1" style="stop-opacity:1; stop-color:#ECECFF"/>
  </linearGradient>
  <linearGradient id="id3" gradientUnits="userSpaceOnUse" x1="3386.13" y1="65.51" x2="3537.2" y2="65.51">
   <stop offset="0" style="stop-opacity:1; stop-color:#D1D7E0"/>
   <stop offset="1" style="stop-opacity:1; stop-color:#EBEBFF"/>
  </linearGradient>
  <linearGradient id="id4" gradientUnits="userSpaceOnUse" xlink:href="#id3" x1="3386.13" y1="283.85" x2="3537.2" y2="283.85">
  </linearGradient>
  <linearGradient id="id5" gradientUnits="userSpaceOnUse" xlink:href="#id3" x1="3386.13" y1="174.67" x2="3537.2" y2="174.67">
  </linearGradient>
  <linearGradient id="id6" gradientUnits="userSpaceOnUse" xlink:href="#id1" x1="965.07" y1="4011.39" x2="457.35" y2="4011.39">
  </linearGradient>
  <linearGradient id="id7" gradientUnits="userSpaceOnUse" x1="738.47" y1="4450.93" x2="1284.11" y2="4450.93">
   <stop offset="0" style="stop-opacity:1; stop-color:#C9C4C1"/>
   <stop offset="1" style="stop-opacity:1; stop-color:#FFF6DE"/>
  </linearGradient>
  <linearGradient id="id8" gradientUnits="userSpaceOnUse" xlink:href="#id2" x1="5720.84" y1="1018.06" x2="5768.77" y2="1018.06">
  </linearGradient>
  <linearGradient id="id9" gradientUnits="userSpaceOnUse" xlink:href="#id2" x1="5762.02" y1="1018.06" x2="5877.02" y2="1018.06">
  </linearGradient>
  <linearGradient id="id10" gradientUnits="userSpaceOnUse" xlink:href="#id2" x1="5431.76" y1="965.46" x2="5800.1" y2="965.46">
  </linearGradient>
  <linearGradient id="id11" gradientUnits="userSpaceOnUse" xlink:href="#id3" x1="3599.59" y1="65.51" x2="3642.58" y2="65.51">
  </linearGradient>
  <linearGradient id="id12" gradientUnits="userSpaceOnUse" xlink:href="#id3" x1="3599.59" y1="283.85" x2="3642.58" y2="283.85">
  </linearGradient>
  <linearGradient id="id13" gradientUnits="userSpaceOnUse" xlink:href="#id3" x1="3599.59" y1="174.67" x2="3642.58" y2="174.67">
  </linearGradient>
  <linearGradient id="id14" gradientUnits="userSpaceOnUse" xlink:href="#id3" x1="3001.06" y1="2496.82" x2="3207.47" y2="2496.82">
  </linearGradient>
  <linearGradient id="id15" gradientUnits="userSpaceOnUse" xlink:href="#id1" x1="1005.87" y1="3916.52" x2="355.09" y2="3916.52">
  </linearGradient>
  <linearGradient id="id16" gradientUnits="userSpaceOnUse" xlink:href="#id2" x1="4481.29" y1="1277.89" x2="4481.29" y2="353.27">
  </linearGradient>
  <linearGradient id="id17" gradientUnits="userSpaceOnUse" xlink:href="#id3" x1="2927.1" y1="2496.82" x2="3013.13" y2="2496.82">
  </linearGradient>
  <linearGradient id="id18" gradientUnits="userSpaceOnUse" xlink:href="#id1" x1="1569.44" y1="3496.25" x2="849.88" y2="3496.25">
  </linearGradient>
  <linearGradient id="id19" gradientUnits="userSpaceOnUse" xlink:href="#id1" x1="1059.13" y1="4270.37" x2="719.2" y2="3012.56">
  </linearGradient>
  <linearGradient id="id20" gradientUnits="userSpaceOnUse" xlink:href="#id7" x1="781.39" y1="5197.61" x2="1003.34" y2="4240.79">
  </linearGradient>
  <linearGradient id="id21" gradientUnits="userSpaceOnUse" xlink:href="#id2" x1="3103.62" y1="3444.22" x2="2983.3" y2="1263.56">
  </linearGradient>
 </defs>
 <g id="Layer_x0020_1">
  <metadata id="CorelCorpID_0Corel-Layer"/>
  <path class="fil0" d="M3592.58 2220.09l-1197.97 0c-94.64,0 -171.37,-76.73 -171.37,-171.37l0 -1197.95c0,-94.65 76.73,-171.37 171.37,-171.37l1197.97 0c94.64,0 171.34,76.73 171.34,171.37l0 1197.95c0,94.65 -76.7,171.37 -171.34,171.37zm-1118.22 -1483.09l0 891.01 1038.48 0 0 -891.01 -1038.48 0z"/>
  <polygon class="fil1" points="2636.94,1904.56 3350.26,1904.56 3350.26,1869.32 2636.94,1869.32 "/>
  <polygon class="fil1" points="2737.97,2015.59 3249.22,2015.59 3249.22,1980.35 2737.97,1980.35 "/>
  <path class="fil2" d="M5924.16 3688.77l-1704.88 0c-111.5,0 -201.87,-90.38 -201.87,-201.87l0 -2071.27c0,-111.5 90.37,-201.89 201.87,-201.89l1704.88 0c111.47,0 201.83,90.38 201.83,201.89l0 2071.27c0,111.5 -90.37,201.87 -201.83,201.87z"/>
  <polygon class="fil3" points="4973.44,2704.82 5140.7,2704.82 5140.7,2673.86 4973.44,2673.86 "/>
  <polygon class="fil1" points="4338.51,3017.65 5311.65,3017.65 5311.65,2957.68 4338.51,2957.68 "/>
  <polygon class="fil1" points="4338.51,3305.54 5125.44,3305.54 5125.44,3245.57 4338.51,3245.57 "/>
  <polygon class="fil1" points="4338.51,3161.59 4799.84,3161.59 4799.84,3101.62 4338.51,3101.62 "/>
  <path class="fil3" d="M4385.55 2521.82l-30.27 0 0 197.68 208.65 0 0 -30.29 -178.37 0 0 -167.4zm1359.05 0l0 167.4 -178.31 0 0 30.29 208.59 0 0 -197.68 -30.27 0zm-1389.33 -863.61l30.27 0 0 -167.36 178.37 0 0 -30.29 -208.65 0 0 197.65zm1211.01 -197.65l0 30.29 178.31 0 0 167.36 30.27 0 0 -197.65 -208.59 0z"/>
  <path class="fil3" d="M5680.46 2987.8c-79.28,0 -143.82,64.5 -143.82,143.83 0,79.3 64.54,143.8 143.82,143.8 79.34,0 143.82,-64.49 143.82,-143.8 0,-79.33 -64.48,-143.83 -143.82,-143.83zm0 322.16c-98.36,0 -178.32,-80.01 -178.32,-178.32 0,-98.35 79.96,-178.35 178.32,-178.35 98.35,0 178.37,80.01 178.37,178.35 0,98.32 -80.02,178.32 -178.37,178.32z"/>
  <polygon class="fil3" points="5669.09,3201.82 5588.06,3120.79 5612.48,3096.37 5669.09,3152.98 5748.49,3073.62 5772.85,3098.03 "/>
  <path class="fil4" d="M5787.7 4700.82c0,74.8 -1295.64,135.44 -2893.84,135.44 -1598.24,0 -2893.86,-60.64 -2893.86,-135.44 0,-74.78 1295.62,-135.42 2893.86,-135.42 1598.2,0 2893.84,60.64 2893.84,135.42z"/>
  <g style="clip-path:url(#id0)">
   <image x="2472.65" y="734.47" width="1042.2" height="895.34" xlink:href="employer_Images\employer_ImgID1.png"/>
  </g>
  <path class="fil5" d="M3390.25 1279.42c-34.21,-90.48 -116.37,-132.02 -155.16,-144.96 -13.79,-4.59 -38.47,-12.64 -64.47,-21.05 -46.85,-15.13 -98.03,-31.61 -98.03,-31.61l-161.62 0c0,0 -55.96,18.76 -115.46,39.61l-0.03 0.05c-54.79,19.22 -112.51,40.17 -131.97,49.96 -40.62,20.28 -108.98,165.29 -122.8,181.91 -7.13,8.56 -38.85,65.04 -70.04,128.14l174.12 0c18.4,-31.61 32.57,-56.12 32.57,-56.12 0,0 11.01,24.16 24.36,56.12l557.85 0c8.82,-37.11 14.31,-83.85 14.31,-83.85 0,0 29.88,40.62 62.51,83.85l160.77 0c-39.11,-65.6 -87.63,-150.98 -106.9,-202.05z"/>
  <path class="fil6" d="M3011.05 637.66c0,0 126.39,19.91 107.14,217.64 -19.25,197.73 -130.8,181.52 -138.25,181.32 -7.44,-0.2 -111.96,3.61 -120.11,-237.81 0,0 -3.56,-178.52 151.22,-161.15z"/>
  <path class="fil6" d="M3120.15 799.45c0,0 13.81,-14.78 18.89,0.18 5.08,14.97 -18.87,81.71 -19.75,84.83 0,0 -2.51,5.81 -5.84,2.61 -3.3,-3.19 6.69,-87.62 6.69,-87.62z"/>
  <path class="fil6" d="M2863.22 796.95c0,0 -13.55,-15.05 -18.9,-0.19 -5.37,14.87 17.09,82.05 18.08,85.2 0,0 2.42,5.85 5.81,2.72 3.36,-3.13 -4.99,-87.73 -4.99,-87.73z"/>
  <path class="fil7" d="M3120.09 829.77l-18.11 24.19c0,0 0.53,-53.03 -2.4,-61.34 -2.89,-8.31 -7.33,-33.72 -9.76,-39.71 -2.43,-5.99 -108.54,-35.72 -202.24,8.68 0,0 4.12,38.13 -4.88,41.53 -8.97,3.39 -4.56,62.11 -4.56,62.11l-14.89 -16.79c0,0 -22.76,-152.12 -17.15,-167.98 5.64,-15.86 23.54,-111.18 215.83,-54.6 0,0 59.94,-12.7 71.97,28.69 12.03,41.38 -13.82,175.22 -13.82,175.22z"/>
  <path class="fil6" d="M3088.28 1078.23l-16.21 -7.97c-7.89,-17.6 -2.05,-91.88 -2.05,-91.88 0,0 -160.94,-40.96 -156.36,-9.65 4.62,31.33 -13.85,104.11 -13.85,104.11l-82.57 41.01c0,0 87.98,236.23 189.07,205.75 101.12,-30.47 139.3,-214.27 139.3,-214.27l-57.34 -27.1z"/>
  <path class="fil8" d="M2916 1003.53c0,0 25.91,33.48 70.92,33.48 29.62,0 50.88,-8.29 80.38,-37.06 0,0 -12.79,54.62 -80.18,59.7 0,0 -48.84,6.21 -71.12,-56.12z"/>
  <path class="fil9" d="M2451.31 1796.75c0,0 92.89,45.43 69.9,169 -22.96,123.58 -33.12,140.23 -7.41,188.52 25.68,48.28 55.99,254.27 32.86,293.29 -23.11,39.05 -286.11,-171.55 -322.6,-348.26 -36.45,-176.7 23.14,-255.3 44.2,-284.58 21.06,-29.28 101.06,-59.59 183.05,-17.98z"/>
  <path class="fil10" d="M2416.29 4664.74l21.03 0 0 -99.28c0,0 41.3,27.52 67.18,65.57 25.91,38.03 61.52,34.82 115.76,32.36 54.24,-2.42 51.82,-24.27 46.97,-55.03 -4.88,-30.76 -59.92,-40.48 -77.73,-45.33 -17.79,-4.85 -58.24,-74.51 -71.24,-91.48 -17.73,-23.14 -27.11,-45.34 -27.11,-45.34 0,0 -10.11,-41.27 -60.32,0 -50.18,41.3 -35.61,120.64 -29.94,127.91 5.67,7.3 15.4,110.62 15.4,110.62z"/>
  <path class="fil6" d="M2522.32 4563.03c18.6,12.15 67.18,0 67.18,0 -13.76,-17.82 -98.35,-136.82 -98.35,-136.82 -51.41,-29.94 -71.71,11.27 -71.71,11.27 20.97,6.43 84.27,113.39 102.88,125.54z"/>
  <path class="fil6" d="M3063.57 2731.84c0,0 33.71,6.46 45.22,-9.38 9.79,-13.47 32.16,-23.81 39.06,-26.99 9.2,-4.3 32.57,-27.93 38.09,-16.36 5.49,11.54 -36.66,40.84 -44.28,48.72 -7.62,7.92 41.34,11.42 49.8,19.11 8.44,7.68 -1.96,88.45 -35.28,82.16 -33.33,-6.31 -64.76,-35.02 -70.83,-34.97 -6.1,0.06 -24.45,-3.62 -24.45,-3.62l2.69 -58.68z"/>
  <path class="fil6" d="M3184 2743.64c0,0 100.74,26.02 106,33.35 5.29,7.36 3.53,12.73 -5.99,10.69 -9.53,-2.04 -98.06,-22.32 -98.06,-22.32 0,0 114.06,50.83 119.7,55.91 3.27,2.98 0.56,13.58 -4.64,12.97 -5.2,-0.62 -121.13,-44.55 -121.13,-44.55 0,0 106.41,47.67 109.86,53.31 3.01,4.97 -1.96,14.08 -10.08,11.07 -8.15,-2.97 -109.42,-41.65 -109.42,-41.65 0,0 75.28,39.58 75.36,46.06 0.06,3.97 -1.87,13.26 -20.97,2.46 -19.11,-10.84 -66.86,-31.61 -66.86,-31.61l26.23 -85.7z"/>
  <path class="fil10" d="M2143.56 4671.52l12.94 0 0 -72.88c0,0 23.05,23.72 33.56,58.51 10.52,34.82 48.2,45.13 105.68,43.52 57.48,-1.61 58.28,-24.3 53.43,-58.3 -4.85,-34 -53.43,-51.82 -53.43,-51.82 -21.85,-19.42 -76.08,-99.95 -76.08,-99.95 0,0 -34.82,-9.32 -62.13,12.74 -27.31,22.05 -18.81,71.85 -18.02,84.79 0.82,12.97 4.06,83.39 4.06,83.39z"/>
  <path class="fil11" d="M2183.23 2935.95c0,0 -68.5,89.03 -87.07,194.68 -18.58,105.65 10.99,460.19 10.16,512.42 -0.82,52.2 -49.37,182.12 -39.66,280.47 9.72,98.37 48.05,587.89 48.05,587.89l104.95 -20.83c0,0 -6.08,-499.07 0,-540.35 6.07,-41.27 18.25,-191.75 20.68,-208.76 2.42,-17.01 154.17,-463.38 154.17,-539.56 0,-76.15 -46.15,-390.24 -211.27,-265.98z"/>
  <path class="fil11" d="M2527.26 2970.77c0,0 112.51,429.43 125.89,488.93 13.35,59.47 32.69,108.54 32.69,133.81 0,58.62 -21.76,152.74 -21.76,152.74l-142.9 683.35 -136.09 0c0,0 75.83,-409.96 77.87,-490.13 2.04,-80.33 63.88,-194.42 51.76,-228.42 -12.15,-34 -195.5,-426.22 -195.5,-426.22 0,0 -138.83,-438.72 208.03,-314.06z"/>
  <path class="fil6" d="M2295.74 4590.55l-76.08 -99.95 -62.13 12.74c0,0 16.71,44.75 46.91,78.4 35.78,39.87 91.3,8.82 91.3,8.82z"/>
  <path class="fil12" d="M2480.78 2240.97c0,0 46.38,4.38 81.44,41.95 35.05,37.57 67.97,97.44 77.14,117.48 9.17,20.04 137.87,205.66 144.56,209.84 6.66,4.15 71.36,25.77 114.21,40.2 66.16,22.26 198.74,70.45 198.74,70.45l-26.35 83.36c0,0 -249.3,-81.58 -311.75,-96.95 -76.35,-18.81 -252.11,-244.31 -252.11,-244.31 0,0 -131.03,-153.59 -25.88,-222.02z"/>
  <path class="fil13" d="M2399.84 2208.44c0,0 60.08,28.39 80.94,32.53 20.85,4.18 101.82,109.33 116.02,147.74 14.17,38.38 0,95.98 -29.21,163.58 -29.21,67.59 -1.69,90.14 -15.05,157.73 -13.35,67.62 -9.06,320.51 -6.54,358.07 2.51,37.54 -390.65,94.46 -468.26,26.03 0,0 52.55,-227.92 114.77,-292.97 13.44,-14.05 12.03,-107.81 2.83,-131.18 -9.17,-23.37 -112.66,-197.81 -112.66,-197.81 0,0 -7.6,-176.92 37.57,-211.97 39.22,-30.46 146.13,-41.33 165.32,-48.02 19.19,-6.66 75.04,-9.58 114.27,-3.74z"/>
  <path class="fil6" d="M2428.53 2139.09c0,0 -1.81,16.56 -3.89,38.91 -0.79,8.85 -1.66,18.6 -2.45,28.62 -2.4,29.97 -4.33,62.13 -3.16,78.6 0,0 -62.45,62.59 -133.46,-73.03 0,0 29.85,-55.94 7.39,-132.06 -22.49,-76.18 135.56,58.95 135.56,58.95z"/>
  <path class="fil14" d="M2603.29 2577.23c0,0 15.05,-99.98 -0.93,-160.79 0,0 0,52.28 -28.69,126.53l29.62 34.26z"/>
  <path class="fil6" d="M2237.58 2221.81c0,0 42.97,126.85 160.89,117.54 117.95,-9.35 55.91,-107.14 55.91,-107.14 0,0 -29.38,-16.85 -37.65,-18.43 -8.27,-1.61 -130.39,-3.13 -130.39,-3.13l-48.75 11.16z"/>
  <path class="fil12" d="M2454.38 2232.21c0,0 61.78,170.88 61.78,345.02 0,174.12 4.97,457.8 26.52,547.36 21.59,89.59 82.96,366.6 82.96,366.6l48.1 -24.89c0,0 -115.67,-442.11 -124.39,-474 -8.74,-31.87 6.63,-368.68 14.92,-396.87 8.29,-28.22 43.55,-153.73 38.09,-188.58 -6.92,-43.9 -47.99,-108.86 -114.35,-164.71l-33.62 -9.93z"/>
  <path class="fil12" d="M2260.89 2216.47c0,0 38.41,122.94 57.84,280.35 19.45,157.44 -59.71,888.23 -112.78,1054.11l-205.73 -33.18c0,0 44.28,-516.54 104.4,-610.53 60.11,-94.03 79.24,-177.18 14.34,-373.39 -64.87,-196.2 28.45,-293.38 28.45,-293.38 0,0 95.45,-21.93 113.48,-23.98z"/>
  <polygon class="fil15" points="2482.83,2737.77 2233.41,3169.74 1956.16,3009.67 2194.71,2571.42 "/>
  <polygon class="fil16" points="2452.74,2752.64 2231.24,3136.3 1985.02,2994.11 2196.9,2604.89 "/>
  <polygon class="fil15" points="2371.04,2718.16 2386.59,2691.24 2287.04,2633.75 2267.58,2658.43 "/>
  <path class="fil6" d="M2359.15 3024.66c0,0 -11.33,0.06 -16.33,-2.33 0,0 -8.7,-5.05 -15.1,-8.29 -2.04,-1 -3.83,-1.84 -5.05,-2.25 -5.09,-1.79 -16.8,-4.12 -27.8,-11.77 -11.02,-7.65 -50.07,-52.87 -50.07,-52.87l18.43 -28.04 13.52 -28.72c0,0 82,5.29 93.09,11.22 1.08,0.62 2.13,1.23 3.07,1.87 8.91,5.93 13.03,14.11 17.35,17.76 1.58,1.34 16.39,15.8 15.86,21.96 -0.7,8.56 -4.68,14.2 -9.82,17.03 0,0 -2.13,16.68 -10.37,24.45 0,0 -1.45,15.45 -14.43,22.23 0,0 -3.24,15.51 -12.36,17.76z"/>
  <path class="fil12" d="M2190.15 2240.97c0,0 -75.75,-21.67 -119.15,61.78 -43.41,83.45 -43.2,119.06 -48.98,159.83 -5.49,38.47 -30.21,143.53 -32.71,154.37 -2.48,10.87 -58.48,140.24 -32.81,185.46 25.79,45.45 287.95,179.25 286.28,189.27 -1.67,9.99 45.39,-101.15 45.39,-101.15 0,0 -106.06,-59.15 -123.44,-77.35 -28.21,-29.56 -87.75,-61.43 -75.51,-98.11 14.34,-43.08 57.52,-188.46 67.53,-209.75 10.02,-21.26 97.21,-237.21 33.39,-264.35z"/>
  <path class="fil17" d="M2437.84 1810.45c0,0 134.83,42.38 61.63,275.07 -73.2,232.7 -257.33,-26.96 -238.08,-168.74 19.28,-141.77 176.45,-106.33 176.45,-106.33z"/>
  <path class="fil9" d="M2513.26 1946.23c0,0 -67,65.75 -179.11,73.96 0,0 -43.12,50.53 -46.41,70.36 0,0 -100.05,-170.52 22.93,-272.74 122.97,-102.22 247.81,86.3 202.6,128.42z"/>
  <path class="fil17" d="M2335.5 2024.83c-0.88,-16.94 -11.3,-55.47 -36.48,-44.69 -25.18,10.79 1.55,89.27 18.25,84.44 0,0 20.28,0.31 18.23,-39.75z"/>
  <path class="fil8" d="M2424.64 2178c-0.79,8.85 -1.66,18.6 -2.45,28.62 0,0 -59.53,-3.57 -99.31,-92.08 2.6,3.86 46.21,67.93 101.76,63.46z"/>
  <path class="fil18" d="M948.13 4305.99c86.46,-60.82 187.64,-484.56 193.68,-736.93 3.09,-129.29 41.31,-183.15 75.02,-230.67 32.23,-45.43 60.07,-84.65 43.85,-174.73 -30.98,-172.16 50.48,-246.47 51.31,-247.2l-9.43 -10.75c-3.62,3.19 -88.47,79.83 -55.95,260.49 15.15,84.15 -9.82,119.35 -41.43,163.92 -33.18,46.73 -74.47,104.92 -77.66,238.58 -6.48,270.86 -109.93,670.94 -187.61,725.57l8.22 11.72z"/>
  <path class="fil19" d="M498.09 3528.14c-51.21,-27.95 -106.12,-33.59 -127.73,-13.12 -16.42,15.57 -8.68,42.24 0.71,61.87 17.92,37.45 40.57,60.55 60.56,80.97 27.79,28.33 49.74,50.74 38.61,94.23 -2.18,8.53 -4.7,17.14 -7.23,25.79 -17.66,60.4 -34.35,117.48 58.13,159.04 21.72,9.76 41.62,17.59 59.19,24.48 73.17,28.71 121.51,47.67 173.33,157.06 9.64,20.36 18.12,39.58 26.32,58.15 44.73,101.38 71.73,162.58 169.52,142.8 28.03,-5.67 46.29,-20.12 54.28,-42.97 20.53,-58.74 -28.61,-161.56 -72,-213.22 -3.18,-3.83 -77.76,-94.76 -69.56,-224.89 1.33,-21.17 3.51,-40.66 5.43,-57.81 5.1,-45.5 8.78,-78.4 -8.1,-97.35 -15.43,-17.35 -49.22,-25.21 -109.55,-25.5 -121.14,-0.56 -168.97,-50.65 -207.39,-90.87 -15.37,-16.12 -28.65,-30.02 -44.52,-38.67zm268.81 654.26c-8.16,-18.52 -16.61,-37.65 -26.16,-57.83 -49.39,-104.25 -93.15,-121.43 -165.64,-149.88 -17.71,-6.95 -37.79,-14.84 -59.82,-24.7 -103.84,-46.68 -83.74,-115.44 -66,-176.11 2.48,-8.5 4.96,-16.98 7.1,-25.33 9.13,-35.69 -8.41,-53.6 -34.97,-80.7 -19.74,-20.13 -44.31,-45.19 -63.24,-84.8 -20.73,-43.31 -10.16,-66.54 2.35,-78.4 26.34,-24.97 87.08,-20.39 144.42,10.93 17.82,9.72 32.48,25.09 48.01,41.36 36.56,38.27 82.05,85.9 197.12,86.46 65.61,0.29 101.55,9.35 120.17,30.26 21.12,23.75 17.14,59.27 11.63,108.46 -1.91,17 -4.08,36.31 -5.38,57.13 -7.83,124.26 65.54,213.93 66.26,214.81 43.83,52.17 97.83,160.48 74.52,227.11 -9.77,27.95 -31.62,45.54 -64.94,52.28 -13.27,2.69 -25.4,3.94 -36.56,3.94 -80.49,0 -109.94,-66.74 -148.88,-154.98z"/>
  <path class="fil20" d="M950.8 4419.94l14.27 -0.73c-0.7,-13.44 -18.71,-329.65 -145.68,-422.19 -139.3,-101.53 -183.22,-210.66 -204.13,-283.91 -24.65,-86.29 -150.1,-109.36 -155.42,-110.29l-2.49 14.08c1.21,0.23 121.97,22.46 144.16,100.16 21.49,75.27 66.6,187.37 209.46,291.51 121.52,88.59 139.66,408.17 139.83,411.39z"/>
  <path class="fil21" d="M1364.12 3940.67c95.57,-62.89 52.57,-131.51 2.79,-210.98 -39.16,-62.51 -83.53,-133.34 -57.46,-207.83 30.49,-87.04 75.68,-139.97 115.56,-186.65 66.82,-78.2 110.96,-129.87 22.6,-285.93 -74.82,-132.18 -1.21,-245.51 57.94,-336.59 36.28,-55.87 67.62,-104.16 56.73,-142.95 -6.13,-21.67 -25.44,-40.05 -59.09,-56.14 -6.86,-3.3 -13.87,-3.27 -21.44,0.03 -50.52,21.99 -96.9,168.66 -97.36,170.14l-0.38 1.17 -0.75 1c-52.47,69.34 -114.13,64.84 -163.69,61.19 -29.61,-2.16 -52.99,-3.89 -67.08,10.16 -13.88,13.82 -19,44.08 -15.65,92.54 12.83,185.45 -90.43,223.25 -173.39,253.6 -46.61,17.06 -86.87,31.81 -100.65,68.11 -14.7,38.76 1.29,99.19 50.35,190.18 117.13,217.2 51.58,268.9 -11.83,318.91 -53.03,41.82 -103.12,81.32 -43.65,224.42 61.05,146.89 58.18,305.32 56.08,421.02 -1.43,78.95 -2.56,141.31 19.23,152.18 12.75,6.33 37.15,-4.39 72.52,-31.9 14.18,-30.82 181.9,-389.45 358.6,-505.7zm-437.5 550.39c-29.88,-14.87 -28.79,-74.69 -27.16,-165.24 2.08,-114.41 4.91,-271.12 -54.99,-415.27 -63.63,-153.12 -6.88,-197.87 48,-241.13 61.46,-48.48 119.53,-94.25 8.09,-300.91 -51.17,-94.9 -67.42,-159.1 -51.12,-202.04 16.1,-42.41 61.27,-58.95 109.1,-76.44 82.56,-30.24 176.13,-64.47 164.04,-239.2 -3.71,-53.57 2.59,-86.52 19.82,-103.66 18.71,-18.64 46.3,-16.62 78.22,-14.29 48.25,3.54 102.9,7.54 150.5,-54.59 4.95,-15.51 50.47,-154.05 104.9,-177.76 11.45,-5 22.66,-4.94 33.33,0.17 37.59,17.96 59.39,39.29 66.68,65.19 12.68,45.01 -20.3,95.78 -58.5,154.57 -60,92.42 -128.02,197.14 -57.48,321.77 93.26,164.77 44.01,222.46 -24.18,302.26 -39.06,45.74 -83.33,97.56 -112.94,182.09 -23.81,68 16.8,132.81 56.07,195.5 49.26,78.63 100.2,159.95 -7.05,230.52 -177.32,116.66 -352.43,497.46 -354.18,501.29l-0.73 1.57 -1.37 1.09c-32.67,25.62 -56.45,37.82 -74.35,37.82 -5.42,0 -10.29,-1.11 -14.72,-3.33z"/>
  <path class="fil22" d="M646.74 2831.27c90.24,-30.93 71.5,143.01 109.63,271.71 38.13,128.69 424.22,56.14 262.16,378.41 -162.06,322.27 204.96,107.75 95.33,388.98 -109.62,281.22 -9.54,581.99 -128.69,505.5 -119.16,-76.5 -66.95,-430.64 -190.88,-472.73 -123.92,-42.09 -144.15,-91.16 -21.45,-205.54 122.7,-114.42 -321.53,-227.98 -211.9,-458.97 109.63,-230.99 -18.46,-371.61 85.8,-407.36z"/>
  <path class="fil23" d="M943.62 4357.37c11.35,-48.14 108.27,-471.79 17.83,-523.03 -79.7,-45.13 -77.74,-220.68 -65.31,-386.47 11.01,-146.75 -177.47,-215.33 -185.5,-218.19l-4.78 13.49c1.87,0.64 186.21,67.79 176.02,203.62 -12.76,170.26 -14.14,350.92 72.52,400 68.67,38.9 5.45,379.39 -24.71,507.3l13.92 3.27z"/>
  <polygon class="fil24" points="1284.11,4206.53 1155.26,4695.35 867.31,4695.35 738.47,4206.53 "/>
  <path class="fil25" d="M1284.11 4206.53c0,0 -283.65,53.25 -283.65,488.82l-133.15 0 -128.84 -488.82 545.64 0z"/>
  <path class="fil26" d="M4046.53 1127.98l0 -0.14 -1.9 0c-1.82,-0.15 -3.62,-0.34 -5.41,-0.55l0 -0.02 -0.15 0c-1.08,-0.13 -2.15,-0.28 -3.22,-0.43l0 -0.14 -0.95 0c-1,-0.15 -2,-0.32 -2.99,-0.49l0 -0.07 -0.44 0c-0.98,-0.17 -1.96,-0.36 -2.94,-0.56l0 -0 -0.03 0c-1.69,-0.34 -3.37,-0.7 -5.04,-1.1l0 -0.03 -0.11 0c-0.72,-0.17 -1.43,-0.34 -2.15,-0.53l0 -0.04 -0.16 0c-0.51,-0.13 -1.02,-0.28 -1.53,-0.41l0 -0.15 -0.56 0c-0.56,-0.15 -1.13,-0.31 -1.69,-0.47l0 -0.09 -0.32 0c-1.21,-0.35 -2.42,-0.72 -3.62,-1.1l0 -0.03 -0.07 0c-0.54,-0.17 -1.08,-0.34 -1.62,-0.52l0 -0.04 -0.12 0c-0.53,-0.17 -1.05,-0.36 -1.57,-0.54l0 -0.03 -0.08 0c-0.92,-0.32 -1.83,-0.64 -2.74,-0.98l0 -0.14 -0.38 0 -1.31 -0.5 0 -0.06 -0.17 0c-1.84,-0.71 -3.66,-1.46 -5.45,-2.25l0 -0 -0 0c-0.37,-0.16 -0.75,-0.32 -1.12,-0.49l0 -0.07 -0.16 0 -0.96 -0.44 0 -0.12 -0.26 0 -0.86 -0.4 0 -0.16 -0.34 0c-2.94,-1.39 -5.83,-2.88 -8.66,-4.47l0 -0.04 -0.07 0c-0.92,-0.51 -1.84,-1.04 -2.74,-1.58l0 -0.11 -0.19 0c-0.31,-0.18 -0.63,-0.36 -0.94,-0.56l0 -0 -0.01 0c-0.56,-0.34 -1.12,-0.69 -1.68,-1.03l0 -0.09 -0.15 0c-2.24,-1.4 -4.45,-2.86 -6.6,-4.38l0 -0.12 -0.17 0c-0.51,-0.36 -1.01,-0.73 -1.51,-1.09l0 -0.03 -0.04 0 -0.52 -0.38 0 -0.19 -0.25 0c-0.48,-0.36 -0.96,-0.71 -1.44,-1.07l0 -0.05 -0.06 0c-0.73,-0.56 -1.46,-1.12 -2.18,-1.69l0 0 -0 0c-1.14,-0.9 -2.26,-1.82 -3.37,-2.76l0 -0.06 -0.06 0c-1.51,-1.27 -2.99,-2.57 -4.44,-3.9l0 -0.04 -0.05 0 -0.52 -0.48 0 -0.08 -0.09 0 -0.48 -0.44 0 -0.12 -0.13 0 -0.43 -0.4 0 -0.16 -0.17 0c-1.87,-1.77 -3.69,-3.61 -5.45,-5.48l0 -0.14 -0.14 0 -0.42 -0.46 0 -0.11 -0.1 0 -0.46 -0.5 0 -0.06 -0.06 0c-0.17,-0.18 -0.34,-0.36 -0.5,-0.54l0 -0.02 -0.02 0c-1.34,-1.47 -2.64,-2.97 -3.92,-4.5l0 -0 -0 0c-0.76,-0.91 -1.51,-1.83 -2.25,-2.76l0 -0.06 -0.05 0c-0.55,-0.7 -1.1,-1.4 -1.64,-2.12l0 -0.13 -0.1 0c-0.53,-0.7 -1.06,-1.41 -1.59,-2.13l0 -0.13 -0.09 0c-0.54,-0.74 -1.07,-1.48 -1.59,-2.22l0 -0.03 -0.02 0c-0.76,-1.08 -1.5,-2.18 -2.23,-3.28l0 -0.09 -0.06 0c-0.36,-0.54 -0.72,-1.08 -1.07,-1.63l0 -0.06 -0.04 0c-0.56,-0.88 -1.11,-1.76 -1.65,-2.65l0 -0.17 -0.1 0c-0.54,-0.89 -1.07,-1.78 -1.59,-2.69l0 -0.13 -0.07 0c-0.95,-1.65 -1.86,-3.33 -2.74,-5.02l0 -0.05 -0.02 0c-0.18,-0.34 -0.36,-0.69 -0.54,-1.03l0 -0.09 -0.05 0c-0.17,-0.34 -0.34,-0.69 -0.51,-1.04l0 -0.09 -0.05 0c-0.17,-0.35 -0.35,-0.7 -0.52,-1.04l0 -0.08 -0.04 0 -0.52 -1.08 0 -0.04 -0.02 0c-1.63,-3.43 -3.13,-6.93 -4.48,-10.5l0 -0.19 -0.07 0c-0.16,-0.43 -0.33,-0.86 -0.49,-1.29l0 -0.4 -0.14 0c-0.34,-0.92 -0.67,-1.85 -0.98,-2.79l0 -0.02 -0 0c-0.6,-1.76 -1.15,-3.54 -1.68,-5.33l0 -0.3 -0.09 0c-0.16,-0.55 -0.32,-1.09 -0.47,-1.64l0 -0.05 -0.02 0c-0.19,-0.67 -0.37,-1.35 -0.55,-2.03l0 -0.22 -0.06 0c-0.17,-0.66 -0.34,-1.33 -0.5,-2l0 -0.25 -0.06 0c-0.17,-0.7 -0.34,-1.4 -0.5,-2.1l0 -0.15 -0.03 0c-0.4,-1.76 -0.76,-3.53 -1.09,-5.31l0 -0.31 -0.06 0c-0.18,-0.97 -0.34,-1.95 -0.5,-2.93l0 -1.01 -0.17 0c-0.14,-0.92 -0.27,-1.85 -0.39,-2.78l0 -0.59 -0.08 0c-0.52,-4.01 -0.87,-8.07 -1.04,-12.18l0 -3.02 -0.1 0c-0.03,-1.03 -0.04,-2.07 -0.04,-3.12l0 -737.69c0,-1.02 0.02,-2.04 0.04,-3.06l0.1 0 0 -3.07c0.17,-4.09 0.52,-8.13 1.03,-12.12l0.09 0 0 -0.65c0.12,-0.91 0.25,-1.82 0.39,-2.72l0.18 0 0 -1.07c0.15,-0.96 0.31,-1.92 0.49,-2.87l0.07 0 0 -0.37c0.33,-1.76 0.69,-3.52 1.08,-5.26l0.05 0 0 -0.21c0.15,-0.68 0.32,-1.37 0.49,-2.04l0.07 0 0 -0.31c0.16,-0.65 0.32,-1.3 0.49,-1.94l0.08 0 0 -0.28c0.17,-0.66 0.35,-1.31 0.53,-1.97l0.03 0 0 -0.11c0.52,-1.85 1.08,-3.69 1.67,-5.52l0.02 0 0 -0.05c0.18,-0.55 0.35,-1.09 0.53,-1.64l0.03 0 0 -0.08c0.31,-0.92 0.63,-1.83 0.96,-2.74l0.17 0 0 -0.45c0.15,-0.41 0.31,-0.82 0.47,-1.23l0.09 0 0 -0.25c0.18,-0.48 0.36,-0.96 0.55,-1.44l0.02 0 0 -0.04c1.04,-2.65 2.17,-5.26 3.36,-7.84l0.01 0 0 -0.02 0.51 -1.1 0.05 0 0 -0.1 0.49 -1.02 0.07 0 0 -0.14 0.49 -0.99 0.07 0 0 -0.15c0.16,-0.32 0.32,-0.65 0.48,-0.98l0.08 0 0 -0.15c0.17,-0.33 0.34,-0.65 0.51,-0.97l0.06 0 0 -0.11 0.54 -1.02 0.03 0 0 -0.05c0.7,-1.31 1.4,-2.61 2.14,-3.89l0.11 0 0 -0.19c0.18,-0.31 0.37,-0.62 0.56,-0.94l0.01 0 0 -0.01c0.33,-0.56 0.65,-1.12 0.99,-1.68l0.14 0 0 -0.23c0.19,-0.3 0.38,-0.59 0.56,-0.9l0 0 0 -0c0.35,-0.56 0.7,-1.13 1.05,-1.68l0.07 0 0 -0.12c1.07,-1.68 2.18,-3.32 3.32,-4.95l0.06 0 0 -0.09c0.51,-0.73 1.03,-1.45 1.55,-2.16l0.14 0 0 -0.19c0.37,-0.5 0.73,-1 1.11,-1.5l0.02 0 0 -0.03 0.41 -0.54 0.15 0 0 -0.2c0.53,-0.69 1.06,-1.37 1.59,-2.05l0.09 0 0 -0.12c1.8,-2.27 3.67,-4.48 5.61,-6.63l0.02 0 0 -0.02 0.48 -0.54 0.08 0 0 -0.08c0.15,-0.16 0.3,-0.32 0.45,-0.48l0.12 0 0 -0.12 0.41 -0.44 0.16 0 0 -0.17c2.11,-2.27 4.3,-4.46 6.55,-6.58l0.2 0 0 -0.18 0.41 -0.38 0.15 0 0 -0.14 0.45 -0.42 0.11 0 0 -0.11 0.49 -0.46 0.07 0 0 -0.06c1.46,-1.33 2.95,-2.62 4.47,-3.88l0.03 0 0 -0.03c0.9,-0.75 1.81,-1.49 2.73,-2.22l0.08 0 0 -0.06c0.7,-0.55 1.4,-1.09 2.1,-1.62l0.14 0 0 -0.11c0.7,-0.53 1.41,-1.06 2.13,-1.57l0.13 0 0 -0.09c0.74,-0.54 1.48,-1.07 2.24,-1.59l0.02 0 0 -0.01c1.09,-0.76 2.19,-1.51 3.31,-2.24l0.07 0 0 -0.04c0.55,-0.36 1.11,-0.73 1.66,-1.08l0.02 0 0 -0.01c0.29,-0.19 0.59,-0.37 0.88,-0.55l0.25 0 0 -0.15c0.52,-0.33 1.04,-0.65 1.57,-0.97l0.12 0 0 -0.07c0.91,-0.55 1.83,-1.09 2.75,-1.62l0.06 0 0 -0.03c4.31,-2.47 8.78,-4.71 13.36,-6.72l0.14 0 0 -0.06c1.28,-0.56 2.57,-1.1 3.87,-1.62l0.06 0 0 -0.03c0.45,-0.18 0.9,-0.36 1.36,-0.53l0.33 0 0 -0.13c0.88,-0.34 1.76,-0.68 2.66,-1l0.16 0 0 -0.06c0.48,-0.17 0.96,-0.34 1.44,-0.5l0.25 0 0 -0.09c0.45,-0.16 0.91,-0.32 1.37,-0.48l0.31 0 0 -0.1c2.34,-0.78 4.7,-1.49 7.09,-2.15l0.22 0 0 -0.06c0.62,-0.17 1.23,-0.34 1.85,-0.5l0.39 0 0 -0.1c0.63,-0.16 1.26,-0.31 1.9,-0.46l0.36 0 0 -0.08c0.69,-0.17 1.38,-0.32 2.07,-0.48l0.18 0 0 -0.04c1.79,-0.39 3.58,-0.76 5.4,-1.09l0.79 0 0 -0.13c0.86,-0.15 1.72,-0.3 2.59,-0.43l0.79 0 0 -0.11c1.08,-0.16 2.16,-0.31 3.24,-0.45l0.69 0 0 -0.08c1.57,-0.19 3.13,-0.35 4.71,-0.48l1.48 0 0 -0.13c3.55,-0.27 7.14,-0.41 10.76,-0.41l850.15 0c3.6,0 7.16,0.14 10.69,0.4l0 0.13 1.54 0c1.56,0.14 3.1,0.29 4.64,0.48l0 0.09 0.76 0c1.06,0.13 2.13,0.28 3.18,0.44l0 0.12 0.86 0c1.03,0.16 2.06,0.33 3.08,0.51l0 0.05 0.3 0c1.79,0.32 3.56,0.69 5.33,1.07l0 0.05 0.24 0c0.67,0.15 1.34,0.3 2.01,0.46l0 0.11 0.43 0c0.61,0.15 1.22,0.29 1.82,0.45l0 0.12 0.47 0c0.6,0.15 1.19,0.32 1.78,0.48l0 0.08 0.3 0c0.65,0.18 1.31,0.36 1.96,0.55l0 0.01 0.04 0c2.27,0.66 4.5,1.37 6.71,2.14l0 0.11 0.32 0c0.46,0.16 0.92,0.32 1.37,0.48l0 0.08 0.23 0c0.49,0.18 0.97,0.36 1.46,0.54l0 0.02 0.05 0c0.92,0.35 1.85,0.7 2.76,1.07l0 0.06 0.14 0c3.01,1.21 5.97,2.51 8.87,3.92l0 0.03 0.05 0c0.36,0.17 0.72,0.36 1.08,0.53l0 0.03 0.06 0c0.36,0.18 0.71,0.35 1.07,0.53l0 0.03 0.06 0 1.06 0.55 0 0.02 0.03 0c1.7,0.88 3.38,1.79 5.03,2.74l0 0.08 0.14 0c0.9,0.51 1.79,1.04 2.68,1.57l0 0.11 0.2 0c0.88,0.53 1.75,1.08 2.62,1.63l0 0.06 0.09 0c1.68,1.07 3.34,2.18 4.97,3.31l0 0.06 0.09 0c0.73,0.5 1.45,1.02 2.16,1.54l0 0.15 0.21 0c0.49,0.36 0.99,0.72 1.48,1.09l0 0.04 0.05 0 0.51 0.39 0 0.17 0.22 0c0.49,0.37 0.98,0.74 1.46,1.12l0 0 0 0 0.56 0.44 0 0.13 0.16 0c0.7,0.56 1.4,1.12 2.1,1.69l0 0 0 0c1.34,1.1 2.64,2.23 3.94,3.37l0 0 0 0 0.56 0.5 0 0.06 0.08 0 0.49 0.43 0 0.13 0.14 0 0.42 0.39 0 0.18 0.19 0c2.86,2.63 5.62,5.37 8.25,8.23l0 0.21 0.2 0 0.37 0.4 0 0.17 0.16 0 0.41 0.46 0 0.11 0.09 0 0.47 0.53 0 0.03 0.03 0c1.93,2.17 3.8,4.39 5.6,6.67l0 0.08 0.06 0c0.55,0.7 1.09,1.41 1.63,2.12l0 0.13 0.1 0c0.54,0.71 1.06,1.43 1.59,2.16l0 0.09 0.06 0c0.94,1.3 1.86,2.61 2.75,3.94l0 0 0 0c0.96,1.43 1.9,2.89 2.81,4.36l0 0.14 0.08 0c0.54,0.88 1.08,1.77 1.6,2.66l0 0.15 0.09 0c0.54,0.93 1.08,1.86 1.6,2.8l0 0.02 0.01 0c0.97,1.75 1.91,3.52 2.8,5.31l0 0.31 0.16 0 0.41 0.82 0 0.31 0.15 0 0.41 0.84 0 0.28 0.13 0 0.43 0.92 0 0.2 0.09 0c0.16,0.34 0.32,0.67 0.47,1.01l0 0.11 0.06 0c0.97,2.14 1.89,4.31 2.76,6.5l0 0.25 0.1 0c0.35,0.9 0.7,1.8 1.03,2.7l0 0.11 0.04 0c0.18,0.48 0.34,0.97 0.52,1.46l0 0.23 0.08 0c0.16,0.45 0.33,0.91 0.48,1.37l0 0.32 0.11 0c0.56,1.65 1.08,3.31 1.58,4.98l0 0.08 0.02 0c0.18,0.61 0.37,1.22 0.54,1.83l0 0.42 0.11 0c0.16,0.55 0.3,1.1 0.45,1.66l0 0.59 0.16 0c0.14,0.53 0.27,1.06 0.4,1.6l0 0.09 0.02 0c0.18,0.74 0.37,1.48 0.54,2.22l0 0.03 0 0c0.41,1.78 0.78,3.58 1.12,5.38l0 0.25 0.05 0c0.18,0.97 0.35,1.95 0.51,2.92l0 1.01 0.17 0c0.14,0.9 0.27,1.79 0.39,2.69l0 0.69 0.1 0c0.17,1.29 0.33,2.58 0.47,3.88l0 0.06 0 0c0.25,2.3 0.43,4.62 0.56,6.96l0 3.17 0.14 0c0.05,1.57 0.08,3.16 0.08,4.75l0 737.69c0,1.61 -0.03,3.21 -0.09,4.81l-0.14 0 0 3.11c-0.2,3.69 -0.55,7.34 -1.03,10.96l-0.09 0 0 0.63c-0.13,0.92 -0.26,1.83 -0.4,2.74l-0.16 0 0 0.96c-0.17,1 -0.34,1.99 -0.53,2.98l-0.03 0 0 0.19c-0.45,2.4 -0.97,4.78 -1.54,7.13l-0.14 0 0 0.59c-0.14,0.55 -0.28,1.1 -0.42,1.65l-0.14 0 0 0.53c-0.15,0.57 -0.31,1.15 -0.46,1.72l-0.1 0 0 0.36c-0.18,0.63 -0.37,1.26 -0.56,1.89l-0 0 0 0.02c-0.5,1.69 -1.03,3.38 -1.6,5.04l-0.09 0 0 0.26c-0.17,0.48 -0.34,0.95 -0.5,1.43l-0.06 0 0 0.17c-0.18,0.5 -0.36,1.01 -0.54,1.52l-0.02 0 0 0.06c-0.14,0.36 -0.28,0.71 -0.41,1.07l-0.15 0 0 0.41c-0.16,0.43 -0.32,0.86 -0.49,1.28l-0.08 0 0 0.2c-0.87,2.21 -1.8,4.4 -2.79,6.55l-0.03 0 0 0.06c-0.16,0.36 -0.33,0.71 -0.5,1.07l-0.07 0 0 0.14 -0.46 0.99 -0.1 0 0 0.22 -0.44 0.91 -0.12 0 0 0.25 -0.44 0.88 -0.13 0 0 0.25c-0.14,0.29 -0.28,0.59 -0.43,0.87l-0.13 0 0 0.26c-1.23,2.39 -2.53,4.74 -3.89,7.05l-0.06 0 0 0.09c-0.31,0.53 -0.62,1.06 -0.94,1.59l-0.18 0 0 0.3c-0.17,0.28 -0.34,0.55 -0.52,0.82l-0.05 0 0 0.08c-0.34,0.54 -0.67,1.08 -1.01,1.62l-0.12 0 0 0.19c-1.06,1.65 -2.15,3.27 -3.28,4.87l-0.1 0 0 0.14c-0.36,0.52 -0.73,1.03 -1.1,1.54l-0.02 0 0 0.03 -0.39 0.53 -0.17 0 0 0.24c-0.36,0.48 -0.71,0.97 -1.07,1.45l-0.05 0 0 0.07c-0.55,0.73 -1.11,1.46 -1.68,2.18l-0.01 0 0 0.02c-1.97,2.5 -4.02,4.93 -6.15,7.3l-0.04 0 0 0.05 -0.47 0.52 -0.1 0 0 0.11 -0.42 0.45 -0.14 0 0 0.15 -0.39 0.42 -0.17 0 0 0.19c-2.3,2.46 -4.68,4.84 -7.15,7.12l-0.17 0 0 0.16 -0.44 0.41 -0.12 0 0 0.11 -0.49 0.45 -0.08 0 0 0.07c-0.19,0.17 -0.37,0.33 -0.56,0.49l-0 0 0 0c-2.16,1.94 -4.39,3.82 -6.67,5.62l-0.08 0 0 0.06c-0.7,0.55 -1.4,1.09 -2.11,1.62l-0.14 0 0 0.11c-0.7,0.53 -1.42,1.06 -2.13,1.58l-0.12 0 0 0.09c-0.74,0.54 -1.49,1.07 -2.25,1.6l0 0 0 0c-1.1,0.77 -2.21,1.51 -3.33,2.25l-0.05 0 0 0.03c-0.86,0.56 -1.72,1.11 -2.59,1.65l-0.22 0 0 0.14c-0.53,0.33 -1.06,0.66 -1.6,0.99l-0.09 0 0 0.05c-0.28,0.17 -0.58,0.34 -0.86,0.51l-0.26 0 0 0.16c-0.55,0.32 -1.1,0.65 -1.66,0.97l-0.03 0 0 0.01c-3.93,2.25 -7.98,4.31 -12.14,6.18l-0.23 0 0 0.1c-0.35,0.16 -0.7,0.31 -1.05,0.46l-0.08 0 0 0.03c-1.77,0.78 -3.57,1.51 -5.38,2.22l-0.24 0 0 0.09 -1.24 0.47 -0.45 0 0 0.17 -1.07 0.39 -0.06 0 0 0.02c-0.51,0.18 -1.03,0.36 -1.54,0.54l-0.14 0 0 0.05c-0.5,0.17 -1,0.34 -1.5,0.51l-0.19 0 0 0.06c-1.11,0.36 -2.22,0.72 -3.34,1.06l-0.03 0 0 0.01c-0.62,0.19 -1.23,0.37 -1.86,0.55l-0.39 0 0 0.11c-0.54,0.16 -1.08,0.3 -1.62,0.45l-0.07 0 0 0.02c-0.67,0.18 -1.34,0.37 -2.02,0.54l-0.23 0 0 0.06c-0.69,0.18 -1.38,0.34 -2.07,0.51l-0.18 0 0 0.04c-1.65,0.39 -3.3,0.75 -4.97,1.08l-0.1 0 0 0.02c-0.95,0.19 -1.91,0.38 -2.87,0.55l-0.51 0 0 0.08c-0.97,0.17 -1.94,0.33 -2.92,0.48l-1.02 0 0 0.14c-1.05,0.15 -2.1,0.29 -3.15,0.42l-0.22 0 0 0.03c-1.77,0.21 -3.55,0.39 -5.34,0.54l-1.98 0 0 0.14c-3.16,0.22 -6.35,0.33 -9.57,0.33l-850.15 0c-3.24,0 -6.45,-0.12 -9.63,-0.34z"/>
  <polygon class="fil3" points="4432.09,952.12 4521.87,952.12 4521.87,935.5 4432.09,935.5 "/>
  <path class="fil27" d="M4558.13 19.56c0,0 72.36,39.72 49.4,137.39 -23.02,97.66 -31.74,110.56 -13.06,150.03 18.68,39.47 35.05,204.85 15.13,235.11 -19.86,30.26 -221.64,-147.58 -244.03,-289.85 -22.45,-142.27 28.02,-202.69 45.91,-225.24 17.9,-22.55 82.83,-43.7 146.64,-7.44z"/>
  <path class="fil6" d="M4693.96 826.79l-77.43 0c-3.77,-38.2 -7.2,-64.79 -6.53,-68.73 1.13,-6.49 -77.03,-211.62 -84.34,-228.58 -7.37,-16.92 -36.01,-62.43 -39.78,-105.27 -3.77,-42.84 52.11,-60.14 52.11,-60.14 75.4,13.51 100.95,117.82 100.95,117.82 0,0 31.68,211.53 47.71,271.05 4.11,15.26 6.3,42.23 7.32,73.85z"/>
  <path class="fil28" d="M4654.96 532.84l-115.35 48.62c0,0 -105.95,-263.05 -17.1,-233.68 88.56,29.28 128.4,84.32 132.45,185.06z"/>
  <path class="fil28" d="M4629.3 656.68c-3.38,26.12 -17.16,118.63 -14.07,143.61 0.5,4.12 2.19,13.61 4.78,26.5l-278.08 0c7.37,-26.4 14.13,-49.77 18.24,-63.37 13.5,-44.79 0.56,-56.78 -6.3,-92.61 -2.65,-14.02 -11.99,-40.67 -22.17,-70.76 -3.38,-10.05 -6.92,-20.53 -10.29,-31.05 -12.21,-37.92 -17.9,-76.69 -21.38,-99.25 -16.77,-106.97 65.5,-117.25 65.5,-117.25 30.55,-5.65 83.95,-22.14 83.95,-22.14l83.67 17.4c0,0 7.93,2.98 19.58,11.56l0.06 0.05c5.57,4.12 12.04,9.52 18.8,16.49 9.17,9.38 27.35,36.25 45.52,65.78 5.51,9.06 11.14,18.35 16.37,27.49 16.99,29.43 29.09,53.18 28.76,79.95 -0.34,26.35 -29.54,81.48 -32.92,107.59z"/>
  <path class="fil6" d="M4533.14 347.79c0,0 52.39,89.57 32.92,96.26 -19.52,6.69 -122.21,-15.93 -162.33,-100.55 0,0 67.41,-30.64 129.42,4.29z"/>
  <path class="fil6" d="M4525.66 388.7c0,0 -46.59,19.7 -88.74,-45.15 0,0 11.37,-73.64 -12.6,-116.23 -23.97,-42.58 104.66,51.06 104.66,51.06 0,0 -2.08,8.78 -4.22,21.74 -1.12,6.63 -2.25,14.35 -3.09,22.54 -0.73,6.82 -1.29,13.99 -1.52,21.13 -0.56,16.56 0.62,33 5.51,44.91z"/>
  <path class="fil29" d="M4410.03 489.02c-9.57,49.29 -78.33,111.05 -78.33,111.05 -3.38,-10.09 -6.92,-20.53 -10.24,-31.03 47.44,-30.27 88.57,-80.01 88.57,-80.01z"/>
  <path class="fil6" d="M4392.81 528.25c-4.33,17.96 -24.42,199.91 -22.22,206.12 1.29,3.55 10.97,45.65 20.7,92.43l-89.75 0c-9.23,-30.14 -14.63,-55.17 -13.34,-69.34 5.74,-61.38 -15.08,-257.03 -15.08,-257.03 0,0 -18.63,-118.35 79.56,-133.13 0,0 58.07,7.64 61.56,50.48 3.49,42.89 -17.1,92.56 -21.44,110.48z"/>
  <path class="fil28" d="M4265.87 553.38l121.88 28.47c0,0 96.67,-187.71 9.62,-221.99 -91.78,-36.13 -153.44,91.12 -131.5,193.52z"/>
  <path class="fil17" d="M4546.87 29.98c0,0 105.9,38.87 38.83,221.65 -67.19,182.78 -204.2,-31.19 -183.49,-143.52 20.7,-112.31 144.67,-78.13 144.67,-78.13z"/>
  <path class="fil27" d="M4601.9 141.08c0,0 -55.87,49.9 -145.62,52.23 0,0 -20.93,51.11 -24.36,66.8 0,0 -88.62,-152.18 13.28,-229.05 101.9,-76.87 194.35,78.15 156.71,110.03z"/>
  <path class="fil17" d="M4468.38 204.27c-0.06,-13.54 -6.92,-44.66 -27.41,-37.01 -20.42,7.66 -2.08,71.24 11.37,68.02 0,0 16.2,1.01 16.04,-31.02z"/>
  <path class="fil8" d="M4520.26 340.67c-49.8,-13.77 -69.04,-61.21 -69.6,-62.8 40.46,52.3 71.01,44.79 71.01,44.79 -0.73,6.82 -0.79,11.08 -1.41,18.01z"/>
  <path class="fil3" d="M4116.48 863.04l-16.27 0 0 106.14 111.97 0 0 -16.26 -95.71 0 0 -89.88zm729.52 0l0 89.88 -95.71 0 0 16.26 112.03 0 0 -106.14 -16.32 0zm-745.78 -463.59l16.27 0 0 -89.85 95.71 0 0 -16.26 -111.97 0 0 106.11zm650.07 -106.11l0 16.26 95.71 0 0 89.85 16.32 0 0 -106.11 -112.03 0z"/>
  <polygon class="fil3" points="2933.65,1719.38 3053.55,1719.38 3053.55,1697.17 2933.65,1697.17 "/>
  <path class="fil3" d="M2506.37 1600.38l-21.73 0 0 141.77 149.58 0 0 -21.72 -127.85 0 0 -120.06zm974.46 0l0 120.06 -127.88 0 0 21.72 149.58 0 0 -141.77 -21.7 0zm-996.19 -619.22l21.73 0 0 -120 127.85 0 0 -21.72 -149.58 0 0 141.73zm868.31 -141.73l0 21.72 127.88 0 0 120 21.7 0 0 -141.73 -149.58 0z"/>
  <path class="fil30" d="M5672.24 2507.94l-101.4 0c-1.91,-4.06 -3.38,-7.59 -4.62,-10.43 -30.1,-71.07 -185.23,-234.02 -185.23,-234.02 0,0 0,0.08 0,0.35l-0.06 0.17 0 0.21 -0.28 0.7c-0.06,0.35 -0.17,0.78 -0.34,1.31l-0.17 0.87c-0.11,0.26 -0.17,0.44 -0.28,0.7 -6.36,23.74 -37.59,142.04 -53.23,240.13l-686.36 0c-1.57,-9.08 -3.43,-17.76 -5.57,-25.79 -6.25,-24.36 -10.52,-48.46 -13.23,-70.98 -0.11,-1.14 -0.28,-2.19 -0.34,-3.33 -0.56,-4.14 -1.01,-8.29 -1.35,-12.38 -5.9,-61.6 -1.52,-108.84 -1.12,-113.6 -1.97,4.15 -15.81,55 -33.99,117.74 -10.01,34.44 -21.33,72.5 -32.52,108.34l-162.05 0 203.41 -586.78c4.5,-3.53 57.28,-29.04 95.77,-47.41 39.27,-18.71 86.71,-46.17 129.47,-69.65 21.89,-12.01 42.54,-22.87 60.49,-31.08l2.7 -1.23 0 -0.08c29.6,-13.51 49.29,-22.43 49.29,-22.43l0.11 0c0.67,-0.08 5.35,-0.53 12.77,-1.24 41.3,-3.97 169.48,-15.97 212.42,-18.44 3.49,-0.26 6.53,-0.36 8.84,-0.45 1.91,-0.08 3.43,-0.08 4.33,0 5.34,0.36 31.85,9.54 66.57,22.78 1.29,0.45 2.59,0.97 3.94,1.5 1.69,0.62 3.27,1.23 4.95,1.85 2.98,1.15 6.07,2.29 9.17,3.53 6.19,2.47 12.6,4.94 19.08,7.5 2.19,0.88 4.5,1.76 6.81,2.65 69.43,27.54 149.06,61.7 167.96,75.3 12.55,8.92 51.48,82.27 96.56,173.02 48.56,155.53 107.98,379.95 127.5,490.65z"/>
  <path class="fil6" d="M5168.58 1709.21c-1.86,92.26 -180.51,142.74 -180.51,142.74 0,0 -74.73,-93.68 -56.83,-102.65 6.98,-3.53 9.85,-17.51 10.74,-33.18 0.79,-14.93 -0.17,-31.39 -1.07,-41.85 -0.5,-6.53 -1.01,-10.72 -1.01,-10.72 0,0 25.54,-26.93 58.01,-59.02 56.72,-56.11 134.71,-127.98 134.82,-99.38 0,1.51 -0.17,3.33 -0.62,5.42 -13.73,64.34 36.46,198.65 36.46,198.65z"/>
  <path class="fil8" d="M5099.76 1574.03l0 0.02c-0.34,0.53 -7.93,11.87 -20.87,28.14 -27.4,34.49 -78.94,91.16 -136.9,113.93 0.79,-14.93 -0.17,-31.39 -1.07,-41.85 -5.9,-0.15 -11.81,-0.84 -17.72,-2.13 15.92,-27.76 38.83,-56.87 38.83,-56.87l35.9 -10.73 101.85 -30.5z"/>
  <path class="fil6" d="M5134.03 1506.39c-15.42,33.62 -30.1,57.98 -34.27,67.63l0 0.02c-2.7,6.29 -10.07,16.53 -20.87,28.14 -29.43,31.71 -84.18,73.54 -137.97,72.08 -5.9,-0.15 -11.81,-0.84 -17.72,-2.13 -21.72,-4.75 -47.38,-14.84 -61.45,-42.47 -111.47,-218.2 -30.78,-396.62 -30.78,-396.62 0,0 304.7,-86.17 352.41,5.56 33.43,64.34 -13,188.81 -49.34,267.8z"/>
  <path class="fil31" d="M4830.97 1233.04c0,0 -28.3,-1.57 -35.34,-55.22 -6.92,-53.02 7.09,-67.7 7.09,-67.7 0,0 125.82,-52.66 171,-59.52 45.13,-6.85 156.26,-13.43 182.31,16.35 0,0 63.25,-14.7 80.47,90.33 27.35,166.62 -93.18,328.4 -93.18,328.4 0,0 1.07,-108.86 -22.96,-123.28 -24.03,-14.42 -44.73,19.88 -44.73,19.88l-49.12 8.79c0,0 74.61,-161.04 -14.85,-167 -89.47,-5.96 -129.48,18.3 -180.68,8.96z"/>
  <path class="fil6" d="M5076.98 1338.89c4.67,-47.95 91.38,-66.26 85.58,-16 -5.79,50.26 -48.5,98.55 -68.25,96.85 -19.75,-1.7 -20.87,-44.31 -17.33,-80.86z"/>
  <path class="fil32" d="M5584.58 2021.8c-28.25,-90.49 -52.67,-162.07 -63.58,-169.85 -18.96,-13.59 -169.37,-55 -240.77,-82.98 -2.31,-0.89 -4.62,-1.77 -6.81,-2.65 -6.47,-2.56 -12.89,-5.03 -19.08,-7.5 -3.1,-1.24 -6.19,-2.39 -9.17,-3.53 -1.69,-0.62 -3.27,-1.23 -4.95,-1.85 -1.35,-0.53 -2.64,-1.06 -3.94,-1.5l-0.39 0.35c-6.36,7.15 -39.39,44.67 -78.83,100.82 -73.77,104.87 -169.93,274.8 -155.19,431.68 4.78,50.3 10.58,122.59 20.42,203.74 0.67,6.46 1.46,12.88 2.36,19.42l333 0c4.05,-84.94 11.25,-196.78 22.23,-240.13 0.11,-0.26 0.17,-0.44 0.28,-0.7l0.17 -0.87c0.06,-0.44 0.28,-0.88 0.34,-1.31l0.28 -0.7 0 -0.21 0.06 -0.17c0,0 80.63,125.98 84.74,244.1l209.6 0c-10.24,-109.74 -42.32,-330.85 -90.76,-486.15z"/>
  <path class="fil32" d="M4880.66 1774.09c0,0 -25.15,83.69 -57.62,292.64l0 0.08c-1.18,6.98 -2.25,14.12 -3.38,21.45 -0.06,0.8 -0.28,1.68 -0.34,2.56 -0.84,4.77 -1.52,9.71 -2.25,14.66 -0.06,0.61 -0.17,1.15 -0.22,1.76 -0.56,3.26 -1.07,6.62 -1.52,10.06 -1.24,8.21 -2.47,16.69 -3.71,25.25 -12.16,85.26 -28.42,220.77 -44.96,365.38l-131.61 0c-7.14,-40.16 -13.84,-76.73 -13.28,-101.79 -0.28,0.53 -0.45,1.17 -0.62,1.69 -10.52,29.13 -22.11,60.82 -33.82,91.64 -1.07,2.8 -2.14,5.63 -3.21,8.47l-226.87 0 225.97 -591.19c4.5,-3.53 62.74,-34.87 101.23,-53.14 40.12,-19.17 90.93,-42.74 135.95,-63.48 21.5,-9.98 41.7,-19.24 58.86,-27.11l1.4 1.06z"/>
  <path class="fil33" d="M5186.7 1980.83l-86.94 49.09 37.2 37.87 -81.59 440.15 -30.72 0c-11.31,-89 -17.72,-168.89 -22.79,-223.16 -22.68,-242.6 219.39,-516.17 234.41,-532.85 11.59,4.41 24.14,9.27 37.14,14.39l-86.71 214.51z"/>
  <path class="fil33" d="M4881.95 1771.8c0,0 -32.47,106.02 -70.22,370.76 -12.15,85.18 -28.53,220.77 -45.07,365.38l-12.77 0 -16.83 -415.88 41.36 -44.85 -36.8 -45.99 78.77 -201.1c21.5,-9.98 41.7,-19.24 58.86,-27.11l2.7 -1.23z"/>
  <path class="fil34" d="M5240.66 1752.97l-72.08 -43.76c0,0 -2.03,39.52 -180.51,142.74l50.7 142.73 201.89 -241.7z"/>
  <path class="fil34" d="M4940.64 1729.12c0,0 2.81,42.65 47.44,122.83l-98.86 128.93 -7.2 -209.11 58.63 -42.65z"/>
  <path class="fil35" d="M4988.41 1851.95c0,0 19.13,76.67 12.27,98.13 0,0 -42.2,15.33 -72.48,-3.83 0,0 21.44,-53.67 60.21,-94.3z"/>
  <path class="fil35" d="M4965.11 2112.64c-20.2,137.71 -20.2,277.01 -12.72,395.3l-84.46 0c-1.12,-16.67 -2.19,-34.09 -3.26,-52.25 -15.7,-272.7 80.69,-516.35 80.69,-516.35l42.99 -10.76c0,0 -13.84,120.5 -23.24,184.06z"/>
  <path class="fil36" d="M4624.46 2282.57c-3.21,65.43 -2.76,123.53 -2.76,123.53l0 0.06c0,0.29 -0.06,2.08 -0.17,5 -0.17,-1.11 -0.34,-2.19 -0.45,-3.3 -10.47,29.15 -22.06,60.79 -33.76,91.64 -2.7,-35.72 -3.43,-69.02 -2.64,-99.84 4.73,-183.46 62.4,-279.66 62.4,-279.66 -13.22,31.97 -19.58,100.58 -22.62,162.6z"/>
  <polygon class="fil37" points="3834.82,2508.73 3564.89,2657.09 3293.83,2230.51 3621.71,2116.65 "/>
  <polygon class="fil23" points="3817.73,2495.91 3565.3,2634.66 3311.79,2235.74 3618.41,2129.25 "/>
  <path class="fil6" d="M3910.15 2421.31c0,0 -46.97,-22.46 -67.6,-34.21 -20.62,-11.77 -73.67,-27.89 -77.96,-31.72 -4.27,-3.83 -157.23,-13.26 -166.52,-21.26 -9.26,-8 -18.29,18.75 21.35,27.45 39.64,8.68 94.81,29.91 97.82,45.4 3.04,15.51 -40.72,19.19 -45.13,31.95 -4.44,12.74 1.23,9.87 7.5,12.62 6.25,2.75 52.03,-22.61 72.15,-15.39 20.09,7.19 50.85,-2.77 66.27,2.52 15.42,5.26 90.41,30.49 90.41,30.49l1.7 -47.84z"/>
  <path class="fil6" d="M3551.75 2603.58c0,0 -39.46,-35.52 -58.56,-50.39 -19.11,-14.87 -54.94,-58.56 -60.23,-61.14 -5.26,-2.54 -73.73,-143.01 -84.88,-148.62 -11.16,-5.64 10.57,-24.56 34.17,9.4 23.64,34 65.11,77.73 80.88,74.52 15.8,-3.19 2.22,-45.83 12.53,-54.97 10.28,-9.15 9.81,-2.69 14.81,2.16 5.03,4.85 -1.02,57.84 13.58,73.99 14.61,16.15 17.2,49.01 28.19,61.49 10.98,12.47 63.94,73.31 63.94,73.31l-44.43 20.25z"/>
  <path class="fil38" d="M4401.76 4502.25c0,0 8.55,59.27 9.62,68.18 1.07,8.91 94.98,-5.26 94.98,-5.26l7.59 -70.55c0,0 -100.49,-0.73 -112.2,7.62z"/>
  <path class="fil37" d="M4410.36 4562.89c0,0 -29.76,35.69 -58.52,51.26 -28.81,15.57 -73.99,21.73 -91.04,37.86 -12.27,11.63 -44.73,61.69 74.78,60.7 119.51,-1.02 177.13,7.07 189.96,-12.15 12.83,-19.19 -18.51,-141.66 -18.51,-141.66 0,0 -28.31,10.16 -96.67,4z"/>
  <path class="fil38" d="M3728.9 4502.25c0,0 8.53,59.27 9.58,68.18 1.08,8.91 94.99,-5.26 94.99,-5.26l7.6 -70.55c0,0 -100.46,-0.73 -112.17,7.62z"/>
  <path class="fil37" d="M3737.49 4562.89c0,0 -29.73,35.69 -58.54,51.26 -28.77,15.57 -134.66,28.36 -151.68,44.46 -12.3,11.65 -32.71,58.45 135.44,54.1 119.5,-3.13 177.15,7.07 189.94,-12.15 12.83,-19.19 -18.52,-141.66 -18.52,-141.66 0,0 -26.67,10.86 -96.65,4z"/>
  <path class="fil37" d="M4323.99 2979.53c0,0 88.23,140.17 81.65,266.91 -6.58,126.71 32.02,265.07 45.24,397.45 14.8,147.6 75.29,496.97 77.48,575.92 2.14,78.92 -9.4,331 -9.4,331l-121.09 2.77c0,0 -101.62,-610.8 -128.01,-673.13 -26.28,-62.3 -156.89,-506.63 -161.26,-556.5 -4.39,-49.86 215.39,-344.43 215.39,-344.43z"/>
  <path class="fil37" d="M3859.5 2998.51c0,0 -66.51,347.33 -75.27,424.88 -8.79,77.58 -14.63,375.37 -19.01,423.83 -4.41,48.49 -29.27,634.38 -52.7,706.37l154.78 0c0,0 118.79,-425.9 118.79,-627.42 0,-201.51 91.78,-438.08 151.05,-571.05 59.24,-132.96 194.85,-136.11 231.25,-382.79 0,0 -459.58,-52.08 -508.89,26.17z"/>
  <path class="fil6" d="M4176.74 1800.86c0,0 -118.44,-44.24 -173.03,45.92 -54.63,90.15 -49.37,270.65 10.33,292.85 59.71,22.19 149.38,10.6 179.97,-45.83 30.55,-56.41 58.13,-137.96 56.83,-192.47 -1.35,-54.5 -42.99,-84.73 -74.1,-100.46z"/>
  <path class="fil6" d="M4026.89 2143.75c0,0 4.94,31.97 -3.21,47.75 -8.15,15.74 153.45,16.15 153.45,16.15 0,0 13.11,-85.68 37.98,-158.07 24.87,-72.39 -188.22,94.18 -188.22,94.18z"/>
  <path class="fil39" d="M4215.11 2049.57c0,0 -11.14,18.4 -56.66,11.26 -45.54,-7.13 -101.06,-67.7 -120.08,-74.35 -19.01,-6.65 -19.19,-17.82 -19.19,-17.82l-11.89 17.38 -20.21 1.28c0,0 18.43,-54.18 -9.34,-76.28 -27.78,-22.1 28.83,-175.36 174.81,-124.34 0,0 112.13,30.91 108.08,94.69 -4.11,63.77 -20.42,136.41 -45.52,168.18z"/>
  <path class="fil40" d="M4014.1 2189.6c0,0 0.5,-30.12 14.13,-33.01 13.64,-2.86 150.58,-16.04 167.35,-9.46l0 35.07c0,0 -32.28,19.84 -181.48,7.4z"/>
  <path class="fil6" d="M4022.2 1945.46c2.57,-10.7 29.76,-41.26 40.16,-8.53 10.43,32.73 -15.71,76.76 -30.32,72.98 -14.57,-3.77 -16.3,-37.33 -9.84,-64.45z"/>
  <path class="fil41" d="M3470.63 2545.19l0.21 -0.03c-0.94,0.41 -1.08,0.46 -0.21,0.03z"/>
  <path class="fil42" d="M4423.53 3313.51c0,0 -72.64,21.38 -196.49,35.02 -123.85,13.64 -433.32,-4.93 -435.28,-19.57 -1.96,-14.63 66.57,-544.87 62.69,-572.18 -3.92,-27.31 -5.99,-124.6 -5.99,-124.6 -1.54,26.66 -28.71,135.55 -61.48,194.94 -11.86,21.44 -51.58,88.65 -70.74,73.37 -92.71,-74.01 -236.28,-352.97 -245.36,-355.33 7.62,-3.33 68.03,-31.14 76.5,-33.94 7.42,-2.49 74.32,68.31 114.83,112.22 18.08,19.57 30.9,33.79 30.9,33.79 11.71,-26.32 54.32,-192.2 67.55,-249.62 29.88,-129.46 25.3,-134.83 25.3,-134.83 90.61,-27.43 228.16,-83.19 228.16,-83.19l181.48 -7.42c0,0 166.56,36.69 232.17,66.31 6.19,2.8 6.24,148.59 23.35,186.82l-54.41 114.73c0,0 -31.46,227.28 -37.93,328.34 -3.04,46.41 64.76,435.14 64.76,435.14z"/>
  <path class="fil42" d="M4458.58 2624.55c-4.73,15.3 -26.22,28.24 -40.23,33.88 -8.95,3.62 -18.97,4.79 -29.04,2.93l-7.15 -1.32 0 0 -124.35 -23.08c0,0 -27.18,-313.39 169.93,-388.48 5.17,1.69 74.39,235.75 30.83,376.07z"/>
  <path class="fil43" d="M4418.36 2658.43l0 0c-8.95,3.62 -18.97,4.79 -29.04,2.93l-7.15 -1.32 0 0 12.27 -160.15 23.92 158.55z"/>
  <path class="fil43" d="M3693.09 2657.24l-15.19 64.38c0,0 -16.5,-64.62 -15.71,-98.17 18.08,19.57 30.9,33.79 30.9,33.79z"/>
  <path class="fil39" d="M4210.5 1811.5c0,0 155.19,-19.44 2.59,239.83l-2.59 -239.83z"/>
  <polygon class="fil37" points="3418.61,2207.64 3402.84,2180.54 3527.12,2137.65 3542.9,2164.62 "/>
  <polygon class="fil44" points="5877,1046 5789,1046 5762.05,990.11 5850.05,990.11 "/>
  <polygon class="fil45" points="5768.74,1046 5747.75,1046 5720.86,990.11 5741.79,990.11 "/>
  <polygon class="fil46" points="5800.14,979.43 5443.57,979.43 5431.75,951.49 5788.27,951.49 "/>
  <path class="fil47" d="M3528.96 88.28l-134.6 0c-4.55,0 -8.23,-3.69 -8.23,-8.23l0 -29.07c0,-4.54 3.68,-8.23 8.23,-8.23l134.6 0c4.56,0 8.24,3.69 8.24,8.23l0 29.07c0,4.55 -3.68,8.23 -8.24,8.23z"/>
  <path class="fil48" d="M3528.96 197.45l-134.6 0c-4.55,0 -8.23,-3.69 -8.23,-8.23l0 -29.07c0,-4.54 3.68,-8.22 8.23,-8.22l134.6 0c4.56,0 8.24,3.68 8.24,8.22l0 29.07c0,4.54 -3.68,8.23 -8.24,8.23z"/>
  <path class="fil49" d="M3528.96 306.62l-134.6 0c-4.55,0 -8.23,-3.69 -8.23,-8.23l0 -29.07c0,-4.54 3.68,-8.23 8.23,-8.23l134.6 0c4.56,0 8.24,3.69 8.24,8.23l0 29.07c0,4.54 -3.68,8.23 -8.24,8.23z"/>
  <path class="fil50" d="M3634.35 88.28l-26.55 0c-4.53,0 -8.21,-3.69 -8.21,-8.23l0 -29.07c0,-4.54 3.68,-8.23 8.21,-8.23l26.55 0c4.53,0 8.21,3.69 8.21,8.23l0 29.07c0,4.55 -3.68,8.23 -8.21,8.23z"/>
  <path class="fil51" d="M3634.35 197.45l-26.55 0c-4.53,0 -8.21,-3.69 -8.21,-8.23l0 -29.07c0,-4.54 3.68,-8.22 8.21,-8.22l26.55 0c4.53,0 8.21,3.68 8.21,8.22l0 29.07c0,4.54 -3.68,8.23 -8.21,8.23z"/>
  <path class="fil52" d="M3634.35 306.62l-26.55 0c-4.53,0 -8.21,-3.69 -8.21,-8.23l0 -29.07c0,-4.54 3.68,-8.23 8.21,-8.23l26.55 0c4.53,0 8.21,3.69 8.21,8.23l0 29.07c0,4.54 -3.68,8.23 -8.21,8.23z"/>
  <polygon class="fil53" points="3049.43,2546.99 3207.49,2546.99 3159.11,2446.66 3001.06,2446.66 "/>
  <polygon class="fil54" points="2975.47,2546.99 3013.15,2546.99 2964.78,2446.66 2927.1,2446.66 "/>
 </g>
</svg>
