<?xml version="1.0" encoding="UTF-8"?>
<!DOCTYPE svg PUBLIC "-//W3C//DTD SVG 1.1//EN" "http://www.w3.org/Graphics/SVG/1.1/DTD/svg11.dtd">
<!-- Creator: CorelDRAW -->
<svg xmlns="http://www.w3.org/2000/svg" xml:space="preserve" width="1.33907in" height="0.455807in" version="1.1" style="shape-rendering:geometricPrecision; text-rendering:geometricPrecision; image-rendering:optimizeQuality; fill-rule:evenodd; clip-rule:evenodd"
viewBox="0 0 1353.66 460.77"
 xmlns:xlink="http://www.w3.org/1999/xlink"
 xmlns:xodm="http://www.corel.com/coreldraw/odm/2003">
 <defs>
  <style type="text/css">
   <![CDATA[
    .fil1 {fill:#0371E0}
    .fil0 {fill:black;fill-rule:nonzero}
    .fil2 {fill:#0371E0;fill-rule:nonzero}
   ]]>
  </style>
 </defs>
 <g id="Layer_x0020_1">
  <metadata id="CorelCorpID_0Corel-Layer"/>
  <g id="_2724442504464">
   <path class="fil0" d="M-0 325.06c0,9.08 7.18,16.25 16.26,16.25 9.07,0 16.25,-7.18 16.25,-16.25l0 -117.81c0,-9.08 -7.18,-16.25 -16.25,-16.25 -9.08,0 -16.26,7.18 -16.26,16.25l0 117.81zm66.08 0.21c0,8.87 7.18,16.04 16.05,16.04 8.86,0 16.04,-7.18 16.04,-16.04l0 -48.35c0,-15.2 7.81,-23.01 20.06,-23.01 12.24,0 19.42,7.81 19.42,23.01l0 48.35c0,8.87 7.18,16.04 16.04,16.04 8.87,0 16.05,-7.18 16.05,-16.04l0 -58.48c0,-25.96 -14.14,-42.01 -38.42,-42.01 -16.26,0 -25.76,8.66 -33.15,18.16l0 -1.27c0,-8.87 -7.18,-16.05 -16.04,-16.05 -8.87,0 -16.05,7.18 -16.05,16.05l0 83.6zm169.74 16.68c6.96,0 12.46,-0.84 18.37,-3.16 4.43,-1.69 8.23,-6.34 8.23,-12.04 0,-7.39 -6.12,-13.3 -13.3,-13.3 -0.63,0 -2.75,0.21 -3.8,0.21 -7.18,0 -10.34,-3.59 -10.34,-10.98l0 -48.35 14.14 0c7.6,0 13.72,-6.12 13.72,-13.72 0,-7.6 -6.12,-13.72 -13.72,-13.72l-14.14 0 0 -14.14c0,-8.87 -7.18,-16.04 -16.05,-16.04 -8.86,0 -16.04,7.18 -16.04,16.04l0 14.14 -1.05 0c-7.6,0 -13.72,6.13 -13.72,13.72 0,7.6 6.12,13.72 13.72,13.72l1.05 0 0 53.63c0,26.18 13.3,33.99 32.93,33.99zm72.2 -67.34c2.53,-14.57 11.19,-24.07 24.49,-24.07 13.51,0 21.96,9.71 23.86,24.07l-48.34 0zm66.92 54.26c2.32,-2.11 4.22,-5.28 4.22,-9.5 0,-7.18 -5.28,-12.66 -12.45,-12.66 -3.38,0 -5.49,0.84 -7.81,2.53 -6.54,4.86 -13.93,7.6 -22.8,7.6 -14.36,0 -24.49,-7.6 -27.66,-22.17l63.55 0c8.45,0 14.99,-6.12 14.99,-15.41 0,-23.43 -16.68,-54.47 -54.47,-54.47 -32.93,0 -55.95,26.6 -55.95,58.9l0 0.42c0,34.62 25.13,58.48 59.11,58.48 16.47,0 29.34,-5.28 39.27,-13.72zm36.52 -3.59c0,8.87 7.18,16.04 16.04,16.04 8.87,0 16.05,-7.18 16.05,-16.04l0 -29.98c0,-22.8 9.08,-35.26 25.34,-39.06 6.54,-1.48 12.03,-6.54 12.03,-14.99 0,-9.08 -5.7,-15.63 -15.62,-15.63 -9.5,0 -17.1,10.13 -21.75,21.11l0 -5.07c0,-8.87 -7.18,-16.05 -16.05,-16.05 -8.86,0 -16.04,7.18 -16.04,16.05l0 83.6zm88.25 0c0,8.87 7.18,16.04 16.05,16.04 8.87,0 16.04,-7.18 16.04,-16.04l0 -48.35c0,-15.2 7.81,-23.01 20.06,-23.01 12.24,0 19.42,7.81 19.42,23.01l0 48.35c0,8.87 7.18,16.04 16.04,16.04 8.87,0 16.05,-7.18 16.05,-16.04l0 -58.48c0,-25.96 -14.14,-42.01 -38.42,-42.01 -16.26,0 -25.76,8.66 -33.15,18.16l0 -1.27c0,-8.87 -7.18,-16.05 -16.04,-16.05 -8.87,0 -16.05,7.18 -16.05,16.05l0 83.6zm171.22 16.89c24.49,0 43.28,-11.4 43.28,-36.53l0 -0.42c0,-20.69 -18.37,-28.29 -34.2,-33.57 -12.25,-4.23 -23.01,-7.18 -23.01,-13.52l0 -0.42c0,-4.43 4.01,-7.81 11.82,-7.81 6.76,0 15.41,2.74 24.49,7.18 2.11,1.05 3.59,1.48 5.91,1.48 7.18,0 12.88,-5.49 12.88,-12.67 0,-5.49 -2.95,-9.71 -7.6,-12.04 -10.98,-5.49 -23.22,-8.66 -35.05,-8.66 -22.8,0 -41.38,12.88 -41.38,35.89l0 0.42c0,21.96 17.95,29.35 33.78,33.99 12.45,3.8 23.43,6.13 23.43,13.09l0 0.43c0,5.07 -4.22,8.44 -13.51,8.44 -9.08,0 -19.84,-3.37 -30.61,-10.13 -1.69,-1.05 -4.01,-1.69 -6.33,-1.69 -7.18,0 -12.67,5.49 -12.67,12.67 0,5.07 2.75,8.87 6.12,10.98 13.72,8.87 28.72,12.88 42.64,12.88zm65.87 -141.87c0,9.29 7.81,15.2 17.95,15.2 10.13,0 17.95,-5.91 17.95,-15.2l0 -0.42c0,-9.29 -7.81,-14.99 -17.95,-14.99 -10.13,0 -17.95,5.7 -17.95,14.99l0 0.42zm1.9 124.98c0,8.87 7.18,16.04 16.04,16.04 8.87,0 16.04,-7.18 16.04,-16.04l0 -83.6c0,-8.87 -7.18,-16.05 -16.04,-16.05 -8.87,0 -16.04,7.18 -16.04,16.05l0 83.6zm67.77 0c0,8.87 7.18,16.04 16.04,16.04 8.87,0 16.05,-7.18 16.05,-16.04l0 -70.94 13.51 0c7.39,0 13.3,-5.7 13.3,-13.09 0,-7.39 -5.91,-13.09 -13.3,-13.09l-13.93 0 0 -4.43c0,-8.45 4.22,-12.25 11.61,-12.25l2.74 0c7.18,0 13.09,-6.12 13.09,-13.3 0,-7.18 -5.49,-12.03 -10.98,-12.88 -3.59,-0.64 -8.02,-0.85 -13.09,-0.85 -11.4,0 -20.06,2.96 -25.97,8.87 -5.91,5.91 -9.08,14.99 -9.08,27.45l0 7.18 -1.27 0c-7.39,0 -13.3,5.91 -13.3,13.3 0,7.39 5.91,13.09 13.3,13.09l1.27 0 0 70.94zm98.59 49.19c19.21,0 28.71,-8.66 38.21,-31.67l39.48 -94.79c0.63,-1.48 1.48,-5.07 1.48,-7.6 0,-8.45 -6.97,-14.78 -15.2,-14.78 -8.23,0 -12.88,5.49 -15.41,12.25l-23.64 65.66 -24.49 -65.87c-2.75,-7.6 -7.39,-12.04 -15.41,-12.04 -8.87,0 -15.83,6.33 -15.83,15.41 0,2.11 0.84,5.28 1.69,7.39l38.63 89.52 -1.06 2.53c-2.95,5.7 -5.7,6.76 -11.4,6.76 -2.32,0 -4.01,-0.43 -6.75,-1.27 -1.27,-0.43 -2.75,-0.85 -5.28,-0.85 -6.54,0 -12.67,5.28 -12.67,13.09 0,7.81 5.49,11.61 10.14,13.3 5.28,1.9 10.34,2.96 17.52,2.96z"/>
   <path class="fil1" d="M1161.87 48.45c2.63,5.64 4.1,11.94 4.1,18.58 0,24.33 -19.72,44.05 -44.05,44.05 -24.33,0 -44.05,-19.72 -44.05,-44.05 0,-6.55 1.43,-12.76 4,-18.35l40.38 18.35 39.63 -18.58zm-39.95 9l61.29 -28.73 -61.29 -28.73 -63.2 28.73 63.2 28.73z"/>
   <path class="fil2" d="M0 441.34c0,2.94 2.4,5.35 5.35,5.35 3.03,0 5.44,-2.41 5.44,-5.35l0 -2.41c3.3,4.37 8.2,8.29 16.04,8.29 11.14,0 21.84,-8.83 21.84,-24.42l0 -0.18c0,-15.69 -10.79,-24.42 -21.84,-24.42 -7.67,0 -12.57,3.92 -16.04,8.82l0 -20.95c0,-3.03 -2.41,-5.35 -5.44,-5.35 -3.03,0 -5.35,2.32 -5.35,5.35l0 55.27zm24.25 -3.48c-7.31,0 -13.73,-6.06 -13.73,-15.06l0 -0.18c0,-9 6.42,-15.06 13.73,-15.06 7.31,0 13.46,5.97 13.46,15.06l0 0.18c0,9.27 -6.06,15.06 -13.46,15.06zm40.33 22.91c7.58,0 11.86,-3.57 15.87,-13.19l17.21 -41.28c0.18,-0.53 0.45,-1.69 0.45,-2.58 0,-2.85 -2.32,-5.08 -5.17,-5.08 -2.77,0 -4.28,1.87 -5.17,4.1l-11.77 31.29 -12.66 -31.29c-0.98,-2.5 -2.5,-4.1 -5.26,-4.1 -3.03,0 -5.35,2.23 -5.35,5.26 0,0.72 0.27,1.78 0.62,2.59l17.47 39.05 -0.35 0.98c-1.79,3.65 -3.48,4.99 -6.69,4.99 -1.52,0 -2.5,-0.27 -3.75,-0.62 -0.53,-0.18 -1.07,-0.35 -1.96,-0.35 -2.32,0 -4.37,1.78 -4.37,4.46 0,2.58 1.78,3.92 3.39,4.46 2.23,0.89 4.46,1.34 7.49,1.34zm91.14 -13.64c13.11,0 22.29,-6.95 22.29,-18.63l0 -0.18c0,-10.34 -6.78,-15.06 -19.97,-18.28 -12.03,-2.85 -14.88,-4.99 -14.88,-9.81l0 -0.18c0,-4.1 3.74,-7.4 10.16,-7.4 4.9,0 9.54,1.6 14.35,4.72 0.89,0.54 1.79,0.8 2.85,0.8 2.85,0 5.17,-2.23 5.17,-5.08 0,-2.14 -1.16,-3.65 -2.4,-4.37 -5.62,-3.75 -11.95,-5.79 -19.79,-5.79 -12.39,0 -21.3,7.4 -21.3,18.1l0 0.18c0,11.5 7.49,15.42 20.77,18.63 11.59,2.67 14.08,5.08 14.08,9.54l0 0.18c0,4.64 -4.27,7.84 -11.05,7.84 -6.78,0 -12.31,-2.32 -17.48,-6.42 -0.71,-0.53 -1.69,-0.98 -3.21,-0.98 -2.85,0 -5.17,2.23 -5.17,5.08 0,1.78 0.89,3.3 2.14,4.19 6.95,5.17 14.97,7.84 23.44,7.84zm53.26 0.18c7.84,0 12.93,-2.67 17.11,-6.69 0.98,-0.8 1.52,-1.96 1.52,-3.38 0,-2.59 -2.05,-4.72 -4.64,-4.72 -1.25,0 -2.32,0.62 -2.94,1.16 -2.94,2.49 -6.24,4.19 -10.52,4.19 -8.29,0 -14.08,-6.68 -14.08,-15.06l0 -0.18c0,-8.2 5.79,-14.98 13.64,-14.98 4.27,0 7.31,1.7 10.07,4.01 0.72,0.53 1.87,1.07 3.21,1.07 2.76,0 4.99,-2.14 4.99,-4.9 0,-1.78 -0.98,-3.12 -1.69,-3.75 -4.02,-3.47 -9.09,-5.88 -16.49,-5.88 -14.17,0 -24.52,11.23 -24.52,24.6l0 0.18c0,13.37 10.34,24.33 24.34,24.33zm26.69 -5.97c0,3.03 2.41,5.35 5.35,5.35 3.03,0 5.44,-2.32 5.44,-5.35l0 -21.66c0,-7.31 4.37,-11.68 10.61,-11.68 6.42,0 10.07,4.19 10.07,11.5l0 21.84c0,3.03 2.41,5.35 5.44,5.35 3.03,0 5.35,-2.32 5.35,-5.35l0 -25.14c0,-10.88 -6.15,-18.01 -16.76,-18.01 -7.31,0 -11.68,3.83 -14.71,8.2l0 -20.32c0,-2.94 -2.41,-5.35 -5.44,-5.35 -3.03,0 -5.35,2.41 -5.35,5.35l0 55.27zm75.19 5.97c14.53,0 25.23,-11.14 25.23,-24.51l0 -0.18c0,-13.46 -10.61,-24.42 -25.05,-24.42 -14.44,0 -25.14,11.14 -25.14,24.6l0 0.18c0,13.37 10.61,24.33 24.96,24.33zm0.18 -9.45c-8.38,0 -14.35,-6.87 -14.35,-15.06l0 -0.18c0,-8.2 5.53,-14.98 14.17,-14.98 8.47,0 14.44,6.87 14.44,15.16l0 0.18c0,8.11 -5.53,14.88 -14.26,14.88zm55.93 9.45c14.53,0 25.22,-11.14 25.22,-24.51l0 -0.18c0,-13.46 -10.61,-24.42 -25.05,-24.42 -14.44,0 -25.14,11.14 -25.14,24.6l0 0.18c0,13.37 10.61,24.33 24.96,24.33zm0.18 -9.45c-8.38,0 -14.35,-6.87 -14.35,-15.06l0 -0.18c0,-8.2 5.53,-14.98 14.18,-14.98 8.47,0 14.44,6.87 14.44,15.16l0 0.18c0,8.11 -5.53,14.88 -14.26,14.88zm34.18 3.48c0,3.03 2.41,5.35 5.35,5.35 3.03,0 5.44,-2.32 5.44,-5.35l0 -55.27c0,-2.94 -2.41,-5.35 -5.44,-5.35 -3.03,0 -5.35,2.41 -5.35,5.35l0 55.27zm38.55 5.79c9.81,0 17.47,-4.9 17.47,-14.8l0 -0.18c0,-8.47 -7.75,-11.59 -14.62,-13.73 -5.53,-1.79 -10.61,-3.21 -10.61,-6.69l0 -0.18c0,-2.67 2.41,-4.64 6.6,-4.64 3.3,0 7.22,1.25 11.05,3.21 0.71,0.36 1.25,0.54 2.14,0.54 2.5,0 4.46,-1.87 4.46,-4.37 0,-1.87 -1.07,-3.3 -2.59,-4.1 -4.55,-2.41 -9.81,-3.83 -14.8,-3.83 -9.36,0 -16.76,5.44 -16.76,14.35l0 0.18c0,9 7.76,11.86 14.71,13.82 5.52,1.69 10.52,2.94 10.52,6.59l0 0.18c0,3.12 -2.67,5.08 -7.31,5.08 -4.28,0 -9,-1.52 -13.55,-4.55 -0.62,-0.35 -1.43,-0.62 -2.32,-0.62 -2.5,0 -4.37,1.96 -4.37,4.37 0,1.78 0.89,3.12 2.05,3.75 5.44,3.75 11.95,5.62 17.92,5.62zm25.89 -60.08c0,3.21 2.67,5.35 6.15,5.35 3.48,0 6.15,-2.14 6.15,-5.35l0 -0.53c0,-3.21 -2.67,-5.26 -6.15,-5.26 -3.48,0 -6.15,2.05 -6.15,5.26l0 0.53zm0.8 54.29c0,3.03 2.41,5.35 5.35,5.35 3.03,0 5.44,-2.32 5.44,-5.35l0 -37.26c0,-3.03 -2.41,-5.44 -5.44,-5.44 -3.03,0 -5.35,2.41 -5.35,5.44l0 37.26zm24.82 0c0,2.94 2.41,5.35 5.35,5.35 3.03,0 5.44,-2.41 5.44,-5.35l0 -32.89 8.2 0c2.5,0 4.55,-1.96 4.55,-4.46 0,-2.5 -1.96,-4.46 -4.55,-4.46l-8.38 0 0 -2.58c0,-4.91 2.14,-7.13 6.24,-7.13 0.71,0 1.6,0.09 2.23,0.18 2.5,0.09 4.55,-1.96 4.55,-4.46 0,-2.4 -1.78,-4.19 -3.74,-4.46 -1.52,-0.27 -3.3,-0.44 -5.44,-0.44 -4.63,0 -8.11,1.25 -10.61,3.74 -2.5,2.5 -3.83,6.42 -3.83,11.59l0 3.48 -1.87 0c-2.5,0 -4.55,2.05 -4.55,4.55 0,2.5 2.05,4.46 4.55,4.46l1.87 0 0 32.89zm37.21 19.43c7.58,0 11.86,-3.57 15.87,-13.19l17.21 -41.28c0.18,-0.53 0.45,-1.69 0.45,-2.58 0,-2.85 -2.32,-5.08 -5.17,-5.08 -2.77,0 -4.28,1.87 -5.17,4.1l-11.76 31.29 -12.66 -31.29c-0.98,-2.5 -2.5,-4.1 -5.26,-4.1 -3.03,0 -5.35,2.23 -5.35,5.26 0,0.72 0.27,1.78 0.62,2.59l17.47 39.05 -0.36 0.98c-1.78,3.65 -3.47,4.99 -6.69,4.99 -1.51,0 -2.5,-0.27 -3.74,-0.62 -0.54,-0.18 -1.07,-0.35 -1.96,-0.35 -2.32,0 -4.37,1.78 -4.37,4.46 0,2.58 1.78,3.92 3.39,4.46 2.23,0.89 4.45,1.34 7.49,1.34z"/>
   <path class="fil1" d="M1120.96 145.05c66.6,0 120.59,53.99 120.59,120.59 0,66.6 -53.99,120.58 -120.59,120.58 -66.6,0 -120.59,-53.99 -120.59,-120.58 0,-66.6 53.99,-120.59 120.59,-120.59zm-93.09 175.27c0,9.56 7.74,17.3 17.3,17.3 9.56,0 17.3,-7.74 17.3,-17.3l0 -52.12c0,-16.39 7.97,-24.81 20.94,-24.81 12.97,0 20.26,8.42 20.26,24.81l0 52.12c0,9.56 7.74,17.3 17.3,17.3 9.56,0 17.3,-7.74 17.3,-17.3l0 -52.12c0,-16.39 7.96,-24.81 20.94,-24.81 12.97,0 20.26,8.42 20.26,24.81l0 52.12c0,9.56 7.74,17.3 17.3,17.3 9.56,0 17.3,-7.74 17.3,-17.3l0 -63.5c0,-29.36 -15.48,-44.84 -41.2,-44.84 -16.62,0 -29.36,6.83 -40.06,19.35 -6.37,-12.29 -18.43,-19.35 -34.37,-19.35 -17.53,0 -28,9.33 -35.97,19.58l0 -1.37c0,-9.56 -7.74,-17.3 -17.3,-17.3 -9.56,0 -17.3,7.74 -17.3,17.3l0 90.13z"/>
   <path class="fil2" d="M1274.7 274.6c2.54,-14.57 11.19,-24.07 24.49,-24.07 13.51,0 21.96,9.71 23.86,24.07l-48.35 0zm66.93 54.26c2.32,-2.11 4.22,-5.28 4.22,-9.5 0,-7.18 -5.28,-12.66 -12.46,-12.66 -3.37,0 -5.49,0.84 -7.81,2.53 -6.55,4.86 -13.93,7.6 -22.8,7.6 -14.36,0 -24.49,-7.6 -27.65,-22.17l63.55 0c8.44,0 14.99,-6.12 14.99,-15.41 0,-23.43 -16.68,-54.47 -54.47,-54.47 -32.93,0 -55.95,26.6 -55.95,58.9l0 0.42c0,34.62 25.12,58.48 59.11,58.48 16.46,0 29.34,-5.28 39.27,-13.72z"/>
  </g>
 </g>
</svg>
