<?xml version="1.0" encoding="UTF-8"?>
<!DOCTYPE svg PUBLIC "-//W3C//DTD SVG 1.1//EN" "http://www.w3.org/Graphics/SVG/1.1/DTD/svg11.dtd">
<!-- Creator: CorelDRAW -->
<svg xmlns="http://www.w3.org/2000/svg" xml:space="preserve" width="16.5126in" height="7.01891in" version="1.1" style="shape-rendering:geometricPrecision; text-rendering:geometricPrecision; image-rendering:optimizeQuality; fill-rule:evenodd; clip-rule:evenodd"
viewBox="0 0 16904.25 7185.39"
 xmlns:xlink="http://www.w3.org/1999/xlink"
 xmlns:xodm="http://www.corel.com/coreldraw/odm/2003">
 <defs>
  <style type="text/css">
   <![CDATA[
    .fil0 {fill:#3C65F5;fill-rule:nonzero}
    .fil1 {fill:#587AF3;fill-rule:nonzero}
   ]]>
  </style>
 </defs>
 <g id="Layer_x0020_1">
  <metadata id="CorelCorpID_0Corel-Layer"/>
  <g id="_2733579521936">
   <path class="fil0" d="M1633.98 2017.88l13798.88 0c94.21,0 170.61,76.4 170.61,170.62l0.01 3625.67c-0.01,94.21 -76.41,170.61 -170.63,170.61l-13798.88 0.01c-94.21,-0.01 -170.61,-76.41 -170.61,-170.63l-0.01 -3625.67c0.01,-94.21 76.41,-170.62 170.63,-170.62z"/>
   <path class="fil1" d="M12631.47 1004.72l2312.68 -965.11c260.84,-108.85 560.65,14.41 669.5,275.25l1250.99 2997.72c108.85,260.84 -14.41,560.65 -275.25,669.5l-2312.67 965.11c-260.85,108.84 -560.66,-14.41 -669.51,-275.26l-1250.98 -2997.72c-108.86,-260.84 14.4,-560.65 275.24,-669.5z"/>
   <path class="fil1" d="M314.85 3195.49l1250.69 -521.93c260.85,-108.85 560.66,14.41 669.51,275.25l524.1 1255.9c108.86,260.83 -14.4,560.65 -275.25,669.5l-1250.7 521.94c-260.83,108.84 -560.65,-14.41 -669.5,-275.26l-524.11 -1255.89c-108.85,-260.84 14.41,-560.66 275.25,-669.51z"/>
   <path class="fil1" d="M5902.65 5644.78l552.7 -230.65c260.85,-108.86 560.66,14.4 669.51,275.24l232.13 556.26c108.86,260.83 -14.4,560.65 -275.24,669.5l-552.71 230.66c-260.84,108.85 -560.65,-14.41 -669.5,-275.25l-232.13 -556.25c-108.85,-260.84 14.41,-560.66 275.25,-669.51z"/>
  </g>
 </g>
</svg>
