<?xml version="1.0" encoding="UTF-8"?>
<!DOCTYPE svg PUBLIC "-//W3C//DTD SVG 1.1//EN" "http://www.w3.org/Graphics/SVG/1.1/DTD/svg11.dtd">
<!-- Creator: CorelDRAW -->
<svg xmlns="http://www.w3.org/2000/svg" xml:space="preserve" width="1.41667in" height="0.482217in" version="1.1" style="shape-rendering:geometricPrecision; text-rendering:geometricPrecision; image-rendering:optimizeQuality; fill-rule:evenodd; clip-rule:evenodd"
viewBox="0 0 1038.07 353.35"
 xmlns:xlink="http://www.w3.org/1999/xlink"
 xmlns:xodm="http://www.corel.com/coreldraw/odm/2003">
 <defs>
  <style type="text/css">
   <![CDATA[
    .fil1 {fill:#0371E0}
    .fil0 {fill:black;fill-rule:nonzero}
    .fil2 {fill:#0371E0;fill-rule:nonzero}
   ]]>
  </style>
 </defs>
 <g id="Layer_x0020_1">
  <metadata id="CorelCorpID_0Corel-Layer"/>
  <g id="_2739771526592">
   <path class="fil0" d="M-0 249.28c0,6.96 5.5,12.47 12.47,12.47 6.96,0 12.47,-5.5 12.47,-12.47l0 -90.34c0,-6.96 -5.5,-12.47 -12.47,-12.47 -6.96,0 -12.47,5.5 -12.47,12.47l0 90.34zm50.67 0.16c0,6.8 5.5,12.3 12.3,12.3 6.8,0 12.3,-5.5 12.3,-12.3l0 -37.08c0,-11.65 5.99,-17.65 15.38,-17.65 9.39,0 14.89,5.99 14.89,17.65l0 37.08c0,6.8 5.5,12.3 12.3,12.3 6.8,0 12.31,-5.5 12.31,-12.3l0 -44.85c0,-19.91 -10.85,-32.22 -29.47,-32.22 -12.47,0 -19.75,6.64 -25.42,13.93l0 -0.97c0,-6.8 -5.5,-12.3 -12.3,-12.3 -6.8,0 -12.3,5.5 -12.3,12.3l0 64.11zm130.17 12.79c5.34,0 9.55,-0.65 14.08,-2.43 3.4,-1.29 6.31,-4.86 6.31,-9.23 0,-5.67 -4.7,-10.2 -10.2,-10.2 -0.48,0 -2.1,0.16 -2.91,0.16 -5.5,0 -7.93,-2.75 -7.93,-8.42l0 -37.08 10.85 0c5.83,0 10.52,-4.69 10.52,-10.52 0,-5.83 -4.69,-10.52 -10.52,-10.52l-10.85 0 0 -10.85c0,-6.8 -5.5,-12.3 -12.3,-12.3 -6.8,0 -12.3,5.5 -12.3,12.3l0 10.85 -0.81 0c-5.83,0 -10.52,4.69 -10.52,10.52 0,5.83 4.69,10.52 10.52,10.52l0.81 0 0 41.12c0,20.08 10.2,26.06 25.26,26.06zm55.37 -51.65c1.94,-11.17 8.58,-18.46 18.78,-18.46 10.36,0 16.84,7.45 18.29,18.46l-37.07 0zm51.32 41.61c1.78,-1.62 3.24,-4.05 3.24,-7.29 0,-5.5 -4.05,-9.71 -9.55,-9.71 -2.59,0 -4.21,0.65 -5.99,1.94 -5.02,3.72 -10.69,5.83 -17.49,5.83 -11.01,0 -18.78,-5.83 -21.21,-17l48.73 0c6.47,0 11.49,-4.69 11.49,-11.82 0,-17.97 -12.79,-41.77 -41.77,-41.77 -25.26,0 -42.9,20.4 -42.9,45.17l0 0.32c0,26.55 19.27,44.85 45.33,44.85 12.63,0 22.5,-4.05 30.11,-10.52zm28.01 -2.75c0,6.8 5.51,12.3 12.3,12.3 6.8,0 12.31,-5.5 12.31,-12.3l0 -22.99c0,-17.49 6.96,-27.04 19.43,-29.95 5.02,-1.13 9.23,-5.02 9.23,-11.5 0,-6.96 -4.37,-11.98 -11.98,-11.98 -7.28,0 -13.11,7.77 -16.67,16.19l0 -3.89c0,-6.8 -5.51,-12.3 -12.31,-12.3 -6.8,0 -12.3,5.5 -12.3,12.3l0 64.11zm67.68 0c0,6.8 5.5,12.3 12.3,12.3 6.8,0 12.3,-5.5 12.3,-12.3l0 -37.08c0,-11.65 5.99,-17.65 15.38,-17.65 9.39,0 14.89,5.99 14.89,17.65l0 37.08c0,6.8 5.5,12.3 12.3,12.3 6.8,0 12.31,-5.5 12.31,-12.3l0 -44.85c0,-19.91 -10.85,-32.22 -29.47,-32.22 -12.47,0 -19.75,6.64 -25.42,13.93l0 -0.97c0,-6.8 -5.5,-12.3 -12.3,-12.3 -6.8,0 -12.3,5.5 -12.3,12.3l0 64.11zm131.3 12.95c18.78,0 33.19,-8.74 33.19,-28.01l0 -0.32c0,-15.87 -14.09,-21.69 -26.23,-25.74 -9.39,-3.24 -17.65,-5.5 -17.65,-10.36l0 -0.32c0,-3.4 3.08,-5.99 9.07,-5.99 5.18,0 11.82,2.1 18.78,5.5 1.62,0.81 2.75,1.13 4.53,1.13 5.5,0 9.87,-4.21 9.87,-9.71 0,-4.21 -2.26,-7.45 -5.83,-9.23 -8.42,-4.21 -17.81,-6.64 -26.88,-6.64 -17.49,0 -31.73,9.87 -31.73,27.52l0 0.32c0,16.84 13.76,22.5 25.9,26.07 9.55,2.91 17.97,4.69 17.97,10.04l0 0.33c0,3.88 -3.24,6.47 -10.36,6.47 -6.96,0 -15.22,-2.59 -23.48,-7.77 -1.3,-0.81 -3.08,-1.3 -4.86,-1.3 -5.5,0 -9.71,4.21 -9.71,9.71 0,3.89 2.1,6.8 4.69,8.42 10.52,6.8 22.02,9.87 32.7,9.87zm50.51 -108.79c0,7.12 5.99,11.65 13.76,11.65 7.77,0 13.76,-4.53 13.76,-11.65l0 -0.33c0,-7.12 -5.99,-11.49 -13.76,-11.49 -7.77,0 -13.76,4.37 -13.76,11.49l0 0.33zm1.46 95.84c0,6.8 5.5,12.3 12.3,12.3 6.8,0 12.3,-5.5 12.3,-12.3l0 -64.11c0,-6.8 -5.5,-12.3 -12.3,-12.3 -6.8,0 -12.3,5.5 -12.3,12.3l0 64.11zm51.97 0c0,6.8 5.5,12.3 12.3,12.3 6.8,0 12.3,-5.5 12.3,-12.3l0 -54.4 10.36 0c5.67,0 10.2,-4.37 10.2,-10.04 0,-5.67 -4.54,-10.04 -10.2,-10.04l-10.69 0 0 -3.4c0,-6.48 3.24,-9.39 8.91,-9.39l2.1 0c5.51,0 10.04,-4.69 10.04,-10.2 0,-5.5 -4.21,-9.23 -8.42,-9.87 -2.76,-0.48 -6.15,-0.65 -10.04,-0.65 -8.74,0 -15.38,2.26 -19.91,6.8 -4.54,4.53 -6.96,11.49 -6.96,21.05l0 5.5 -0.97 0c-5.67,0 -10.2,4.54 -10.2,10.2 0,5.67 4.53,10.04 10.2,10.04l0.97 0 0 54.4zm75.61 37.72c14.73,0 22.02,-6.64 29.3,-24.28l30.28 -72.69c0.48,-1.13 1.13,-3.89 1.13,-5.83 0,-6.48 -5.35,-11.33 -11.66,-11.33 -6.31,0 -9.87,4.21 -11.82,9.39l-18.13 50.35 -18.78 -50.51c-2.11,-5.83 -5.67,-9.23 -11.82,-9.23 -6.8,0 -12.14,4.86 -12.14,11.82 0,1.62 0.65,4.05 1.3,5.67l29.63 68.65 -0.81 1.94c-2.26,4.37 -4.37,5.18 -8.74,5.18 -1.78,0 -3.08,-0.32 -5.18,-0.97 -0.97,-0.33 -2.11,-0.65 -4.05,-0.65 -5.02,0 -9.72,4.05 -9.72,10.04 0,5.99 4.21,8.91 7.77,10.2 4.04,1.46 7.93,2.27 13.44,2.27z"/>
   <path class="fil1" d="M891 37.16c2.02,4.33 3.14,9.16 3.14,14.25 0,18.66 -15.12,33.78 -33.78,33.78 -18.66,0 -33.78,-15.13 -33.78,-33.78 0,-5.02 1.1,-9.79 3.06,-14.07l30.96 14.07 30.39 -14.25zm-30.63 6.9l47 -22.03 -47 -22.03 -48.47 22.03 48.47 22.03z"/>
   <path class="fil2" d="M0 338.45c0,2.26 1.84,4.11 4.1,4.11 2.33,0 4.17,-1.85 4.17,-4.11l0 -1.84c2.53,3.35 6.29,6.36 12.3,6.36 8.55,0 16.75,-6.77 16.75,-18.73l0 -0.14c0,-12.03 -8.27,-18.73 -16.75,-18.73 -5.88,0 -9.64,3.01 -12.3,6.77l0 -16.06c0,-2.33 -1.85,-4.1 -4.17,-4.1 -2.32,0 -4.1,1.78 -4.1,4.1l0 42.38zm18.59 -2.66c-5.61,0 -10.53,-4.65 -10.53,-11.55l0 -0.14c0,-6.9 4.92,-11.55 10.53,-11.55 5.61,0 10.32,4.58 10.32,11.55l0 0.14c0,7.11 -4.65,11.55 -10.32,11.55zm30.93 17.57c5.81,0 9.09,-2.73 12.17,-10.12l13.19 -31.65c0.14,-0.41 0.34,-1.3 0.34,-1.98 0,-2.19 -1.78,-3.9 -3.97,-3.9 -2.12,0 -3.28,1.43 -3.96,3.14l-9.02 24 -9.71 -24c-0.75,-1.91 -1.91,-3.14 -4.03,-3.14 -2.33,0 -4.1,1.71 -4.1,4.03 0,0.55 0.2,1.37 0.48,1.98l13.4 29.94 -0.27 0.75c-1.37,2.8 -2.67,3.83 -5.13,3.83 -1.16,0 -1.92,-0.2 -2.87,-0.48 -0.41,-0.14 -0.82,-0.27 -1.5,-0.27 -1.78,0 -3.35,1.36 -3.35,3.42 0,1.98 1.36,3.01 2.6,3.42 1.71,0.68 3.42,1.03 5.74,1.03zm69.89 -10.46c10.05,0 17.09,-5.33 17.09,-14.29l0 -0.14c0,-7.93 -5.2,-11.55 -15.31,-14.01 -9.23,-2.19 -11.42,-3.83 -11.42,-7.52l0 -0.14c0,-3.14 2.87,-5.67 7.79,-5.67 3.76,0 7.31,1.23 11.01,3.62 0.68,0.41 1.37,0.61 2.19,0.61 2.19,0 3.97,-1.71 3.97,-3.89 0,-1.64 -0.89,-2.8 -1.85,-3.35 -4.31,-2.87 -9.16,-4.44 -15.18,-4.44 -9.5,0 -16.34,5.67 -16.34,13.88l0 0.14c0,8.82 5.74,11.83 15.93,14.29 8.89,2.05 10.8,3.89 10.8,7.31l0 0.14c0,3.55 -3.28,6.01 -8.48,6.01 -5.2,0 -9.43,-1.78 -13.4,-4.92 -0.55,-0.41 -1.3,-0.75 -2.46,-0.75 -2.19,0 -3.96,1.71 -3.96,3.9 0,1.37 0.68,2.53 1.64,3.21 5.33,3.96 11.48,6.01 17.98,6.01zm40.84 0.14c6.01,0 9.91,-2.05 13.13,-5.13 0.75,-0.61 1.16,-1.5 1.16,-2.6 0,-1.98 -1.57,-3.62 -3.55,-3.62 -0.95,0 -1.78,0.48 -2.26,0.89 -2.26,1.91 -4.78,3.21 -8.07,3.21 -6.36,0 -10.8,-5.13 -10.8,-11.55l0 -0.14c0,-6.29 4.45,-11.48 10.46,-11.48 3.28,0 5.61,1.3 7.72,3.08 0.55,0.41 1.44,0.82 2.46,0.82 2.12,0 3.83,-1.64 3.83,-3.76 0,-1.37 -0.75,-2.39 -1.3,-2.87 -3.08,-2.66 -6.97,-4.51 -12.64,-4.51 -10.87,0 -18.8,8.61 -18.8,18.87l0 0.14c0,10.26 7.93,18.66 18.66,18.66zm20.47 -4.58c0,2.33 1.85,4.11 4.1,4.11 2.32,0 4.17,-1.78 4.17,-4.11l0 -16.61c0,-5.61 3.35,-8.95 8.13,-8.95 4.92,0 7.73,3.21 7.73,8.82l0 16.75c0,2.33 1.85,4.11 4.17,4.11 2.32,0 4.1,-1.78 4.1,-4.11l0 -19.27c0,-8.34 -4.72,-13.81 -12.85,-13.81 -5.61,0 -8.95,2.94 -11.28,6.29l0 -15.58c0,-2.26 -1.85,-4.1 -4.17,-4.1 -2.33,0 -4.1,1.85 -4.1,4.1l0 42.38zm57.66 4.58c11.14,0 19.35,-8.55 19.35,-18.8l0 -0.14c0,-10.32 -8.14,-18.73 -19.21,-18.73 -11.08,0 -19.28,8.55 -19.28,18.87l0 0.14c0,10.26 8.14,18.66 19.14,18.66zm0.14 -7.24c-6.43,0 -11.01,-5.26 -11.01,-11.55l0 -0.14c0,-6.29 4.24,-11.48 10.87,-11.48 6.5,0 11.08,5.26 11.08,11.62l0 0.14c0,6.22 -4.24,11.42 -10.94,11.42zm42.89 7.24c11.14,0 19.35,-8.55 19.35,-18.8l0 -0.14c0,-10.32 -8.13,-18.73 -19.21,-18.73 -11.07,0 -19.27,8.55 -19.27,18.87l0 0.14c0,10.26 8.13,18.66 19.14,18.66zm0.14 -7.24c-6.42,0 -11.01,-5.26 -11.01,-11.55l0 -0.14c0,-6.29 4.24,-11.48 10.87,-11.48 6.5,0 11.08,5.26 11.08,11.62l0 0.14c0,6.22 -4.24,11.42 -10.94,11.42zm26.21 2.66c0,2.33 1.85,4.11 4.1,4.11 2.32,0 4.17,-1.78 4.17,-4.11l0 -42.38c0,-2.26 -1.85,-4.1 -4.17,-4.1 -2.33,0 -4.1,1.85 -4.1,4.1l0 42.38zm29.56 4.45c7.52,0 13.4,-3.76 13.4,-11.35l0 -0.14c0,-6.49 -5.95,-8.89 -11.21,-10.53 -4.24,-1.37 -8.14,-2.46 -8.14,-5.13l0 -0.14c0,-2.05 1.85,-3.55 5.06,-3.55 2.53,0 5.54,0.96 8.48,2.46 0.55,0.27 0.95,0.41 1.64,0.41 1.92,0 3.42,-1.43 3.42,-3.35 0,-1.43 -0.82,-2.53 -1.98,-3.14 -3.49,-1.85 -7.52,-2.94 -11.35,-2.94 -7.18,0 -12.86,4.17 -12.86,11.01l0 0.14c0,6.91 5.95,9.09 11.28,10.6 4.24,1.3 8.07,2.26 8.07,5.06l0 0.14c0,2.39 -2.05,3.9 -5.61,3.9 -3.28,0 -6.9,-1.16 -10.39,-3.48 -0.48,-0.27 -1.1,-0.48 -1.78,-0.48 -1.92,0 -3.35,1.5 -3.35,3.35 0,1.37 0.68,2.39 1.58,2.87 4.17,2.87 9.16,4.31 13.74,4.31zm19.86 -46.08c0,2.46 2.05,4.11 4.72,4.11 2.67,0 4.72,-1.64 4.72,-4.11l0 -0.41c0,-2.46 -2.05,-4.03 -4.72,-4.03 -2.67,0 -4.72,1.57 -4.72,4.03l0 0.41zm0.61 41.63c0,2.33 1.85,4.11 4.1,4.11 2.32,0 4.17,-1.78 4.17,-4.11l0 -28.57c0,-2.32 -1.85,-4.17 -4.17,-4.17 -2.33,0 -4.1,1.85 -4.1,4.17l0 28.57zm19.03 0c0,2.26 1.85,4.11 4.1,4.11 2.33,0 4.17,-1.85 4.17,-4.11l0 -25.22 6.29 0c1.92,0 3.49,-1.51 3.49,-3.42 0,-1.91 -1.51,-3.42 -3.49,-3.42l-6.42 0 0 -1.98c0,-3.76 1.64,-5.47 4.79,-5.47 0.55,0 1.23,0.07 1.71,0.14 1.91,0.07 3.49,-1.5 3.49,-3.42 0,-1.85 -1.37,-3.21 -2.87,-3.42 -1.16,-0.2 -2.53,-0.34 -4.17,-0.34 -3.55,0 -6.22,0.95 -8.14,2.87 -1.92,1.91 -2.94,4.92 -2.94,8.89l0 2.67 -1.43 0c-1.92,0 -3.49,1.58 -3.49,3.49 0,1.91 1.57,3.42 3.49,3.42l1.43 0 0 25.22zm28.54 14.91c5.81,0 9.09,-2.73 12.17,-10.12l13.19 -31.65c0.14,-0.41 0.34,-1.3 0.34,-1.98 0,-2.19 -1.78,-3.9 -3.96,-3.9 -2.12,0 -3.28,1.43 -3.97,3.14l-9.02 24 -9.71 -24c-0.75,-1.91 -1.91,-3.14 -4.03,-3.14 -2.32,0 -4.1,1.71 -4.1,4.03 0,0.55 0.2,1.37 0.48,1.98l13.4 29.94 -0.27 0.75c-1.37,2.8 -2.67,3.83 -5.13,3.83 -1.16,0 -1.92,-0.2 -2.87,-0.48 -0.41,-0.14 -0.82,-0.27 -1.51,-0.27 -1.78,0 -3.35,1.36 -3.35,3.42 0,1.98 1.37,3.01 2.6,3.42 1.71,0.68 3.42,1.03 5.74,1.03z"/>
   <path class="fil1" d="M859.62 111.24c51.07,0 92.47,41.4 92.47,92.48 0,51.07 -41.4,92.47 -92.47,92.47 -25.03,0 -47.72,-9.95 -64.37,-26.1 2.24,-2.46 4,-5.35 5.16,-8.54 6.66,-1.11 11.72,-6.88 11.72,-13.85l0 -42.32c0,-13.31 6.47,-20.15 17,-20.15 10.54,0 16.45,6.84 16.45,20.15l0 42.32c0,7.76 6.28,14.05 14.05,14.05 7.76,0 14.05,-6.29 14.05,-14.05l0 -42.32c0,-13.31 6.47,-20.15 17,-20.15 10.53,0 16.45,6.84 16.45,20.15l0 42.32c0,7.76 6.29,14.05 14.05,14.05 7.76,0 14.05,-6.29 14.05,-14.05l0 -51.56c0,-23.84 -12.57,-36.41 -33.45,-36.41 -13.49,0 -23.84,5.54 -32.53,15.71 -5.18,-9.98 -14.97,-15.71 -27.91,-15.71 -14.23,0 -22.73,7.58 -29.2,15.9l0 -1.11c0,-7.76 -6.28,-14.05 -14.05,-14.05 -7.76,0 -14.04,6.29 -14.04,14.05l0 53.85c-2.45,-0.78 -5.06,-1.2 -7.77,-1.2 -2.04,0 -4.03,0.24 -5.93,0.69 -2.08,-7.69 -3.19,-15.79 -3.19,-24.13 0,-51.07 41.4,-92.48 92.47,-92.48z"/>
   <path class="fil0" d="M977.53 210.58c1.94,-11.17 8.58,-18.46 18.78,-18.46 10.36,0 16.84,7.45 18.29,18.46l-37.08 0zm51.32 41.61c1.78,-1.62 3.24,-4.05 3.24,-7.29 0,-5.5 -4.05,-9.71 -9.55,-9.71 -2.59,0 -4.21,0.65 -5.99,1.94 -5.02,3.72 -10.69,5.83 -17.49,5.83 -11.01,0 -18.78,-5.83 -21.21,-17l48.73 0c6.48,0 11.49,-4.69 11.49,-11.82 0,-17.97 -12.79,-41.77 -41.77,-41.77 -25.26,0 -42.9,20.4 -42.9,45.17l0 0.32c0,26.55 19.27,44.85 45.33,44.85 12.63,0 22.5,-4.05 30.11,-10.52z"/>
   <path class="fil1" d="M776.27 235.8c9.4,0 17.02,7.62 17.02,17.03 0,9.4 -7.62,17.02 -17.02,17.02 -9.4,0 -17.02,-7.62 -17.02,-17.02 0,-9.4 7.62,-17.03 17.02,-17.03z"/>
  </g>
 </g>
</svg>
